<?xml version="1.0" encoding="UTF-8"?>
<svg id="Layer_2" data-name="Layer 2" xmlns="http://www.w3.org/2000/svg" viewBox="0 0 1175.75 333.79">
  <defs>
    <style>
      .cls-1 {
        fill: #0ab4ff;
      }

      .cls-2 {
        fill: #fff;
      }
    </style>
  </defs>
  <g id="Layer_1-2" data-name="Layer 1">
    <g>
      <g>
        <path class="cls-2" d="M388.67,250.02V84.02h77.31c19.29,0,34.15,3.79,44.58,11.38,10.43,7.59,15.65,18.26,15.65,32.02,0,9.17-2.25,16.84-6.76,23-4.5,6.17-11.26,10.91-20.27,14.23,10.43,2.85,18.18,7.55,23.24,14.11,5.06,6.56,7.59,15.06,7.59,25.49,0,13.91-5.57,25.02-16.72,33.32-11.15,8.3-26.36,12.45-45.65,12.45h-78.97ZM496.1,130.73c0-6.8-2.57-11.93-7.71-15.41-5.14-3.48-12.77-5.22-22.88-5.22h-46.48v43.16h47.43c9.17,0,16.4-2.05,21.7-6.17,5.29-4.11,7.94-9.56,7.94-16.36ZM499.89,201.88c0-7.27-2.49-12.84-7.47-16.72-4.98-3.87-12.13-5.81-21.46-5.81h-51.93v44.58h49.56c9.96,0,17.67-1.93,23.12-5.81,5.46-3.87,8.18-9.29,8.18-16.24Z"/>
        <path class="cls-2" d="M672.53,84.02h28.46v166h-28.46V84.02Z"/>
        <path class="cls-2" d="M806.05,84.02v60.46c-4.74-4.74-10.27-8.33-16.6-10.78-6.32-2.45-13.04-3.68-20.15-3.68-16.76,0-30.83,5.82-42.21,17.43-11.39,11.62-17.08,26.37-17.08,44.23s5.41,32.3,16.24,43.76c10.84,11.47,24.39,17.19,40.68,17.19,7.9,0,15.21-1.51,21.94-4.51,6.72-3,12.69-7.35,17.9-13.04v14.94h27.76V84.02h-28.46ZM771.53,226.9c-19.45,0-35.21-15.78-35.21-35.22s15.76-35.21,35.21-35.21,35.23,15.77,35.23,35.21-15.76,35.22-35.23,35.22Z"/>
        <path class="cls-2" d="M956.63,250.02h-27.03v-14.7c-4.9,5.69-10.87,10-17.9,12.92-7.04,2.92-14.82,4.39-23.36,4.39-13.12,0-23.68-3.32-31.66-9.96-7.99-6.64-11.98-15.41-11.98-26.32,0-12.01,4.66-21.11,13.99-27.27,9.33-6.17,23.08-9.25,41.26-9.25h28.93c-.16-8.85-2.49-15.61-7-20.28-4.51-4.66-11.11-7-19.8-7-6.01,0-11.94,1.19-17.79,3.56-5.85,2.37-11.62,5.93-17.31,10.67l-13.28-18.5c7.27-6.17,15.18-10.83,23.71-13.99,8.54-3.16,17.63-4.74,27.27-4.74,16.44,0,29.21,4.59,38.3,13.75,9.09,9.17,13.64,22.05,13.64,38.66v68.06ZM928.88,199.5h-29.17c-9.33,0-16.24,1.31-20.75,3.91-4.51,2.61-6.76,6.68-6.76,12.21,0,4.74,1.97,8.62,5.93,11.62,3.95,3.01,9.17,4.51,15.65,4.51,9.64,0,17.79-2.96,24.43-8.89,6.64-5.93,10.2-13.71,10.67-23.36Z"/>
        <path class="cls-2" d="M968.73,84.02h28.46v166h-28.46V84.02Z"/>
        <path class="cls-2" d="M1012.36,84.02h28.46v166h-28.46V84.02Z"/>
        <path class="cls-2" d="M1099.63,250.97l-48.85-118.1h30.59l32.49,83.47,32.25-83.47h29.64l-66.16,159.84h-29.17l19.21-41.74Z"/>
        <path class="cls-2" d="M600.91,129.08c-34.57,0-62.6,28.03-62.6,62.6s28.03,62.61,62.6,62.61,62.61-28.03,62.61-62.61-28.03-62.6-62.61-62.6ZM600.91,226.9c-19.45,0-35.21-15.78-35.21-35.22s15.76-35.21,35.21-35.21,35.23,15.77,35.23,35.21-15.76,35.22-35.23,35.22Z"/>
      </g>
      <g>
        <g>
          <path class="cls-1" d="M302.78,249.55l-33.4,33.4-43.13,43.11c-6.67,6.67-16.4,9.28-25.51,6.83l-140.49-37.63c-9.12-2.44-16.24-9.57-18.68-18.68L0,121.36l45.61,12.23,30.72,114.66c1.6,5.97,6.26,10.63,12.23,12.23,38.23,10.24,76.46,20.48,114.68,30.72l20.51-20.49c-38.22-10.25-76.44-20.5-114.66-30.75-5.97-1.6-10.62-6.26-12.22-12.22l-23.23-86.69,45.63,12.23,11,41.05c1.6,5.97,6.26,10.63,12.22,12.23,53.43,14.33,106.86,28.65,160.29,42.98Z"/>
          <path class="cls-1" d="M136.64,42.59l-20.49,20.49c38.22,10.25,76.43,20.49,114.65,30.74,5.97,1.6,10.62,6.26,12.22,12.22l23.23,86.65-45.63-12.24-10.99-41.01c-1.6-5.97-6.26-10.63-12.22-12.23L37.12,84.24,113.62,7.74c6.67-6.67,16.4-9.28,25.52-6.84l140.49,37.63c9.12,2.44,16.24,9.57,18.68,18.68l41.57,155.22-45.63-12.24-30.74-114.68c-1.6-5.97-6.26-10.63-12.23-12.23l-114.65-30.7Z"/>
        </g>
        <circle class="cls-1" cx="169.95" cy="166.9" r="14.99"/>
      </g>
    </g>
  </g>
</svg>