<svg xmlns="http://www.w3.org/2000/svg" height="36" fill="none" viewBox="0 0 233 62">
  <path fill="#000"
    d="M0 28.272V52.08h8.017V12.4H56.12v39.68h8.018V4.464H0v23.808ZM81.475 5.158c-4.31 1.588-6.815 5.506-6.815 10.714 0 7.242 5.061 11.954 12.126 11.309 2.606-.248 6.564-2.43 7.767-4.167.601-.942.551-1.14-.601-1.884-1.253-.794-1.353-.794-2.756.396-4.76 3.968-10.723 2.183-11.976-3.57-1.253-5.903 2.105-10.466 7.416-9.871 2.305.248 4.56 2.033 4.56 3.62 0 .447.55.695 1.754.695h1.753V4.96H92.95c-1.302 0-1.753.198-1.753.794 0 .744-.1.744-1.303-.05-1.754-1.14-6.013-1.438-8.418-.546Zm115.247 1.588c-.451.396-.802 1.09-.802 1.438 0 .347.351 1.042.802 1.438 1.503 1.488 3.708.645 3.708-1.438s-2.205-2.926-3.708-1.438Zm-95.304 6.348c-3.608 1.588-5.061 5.952-3.308 9.87 1.654 3.671 5.813 5.16 9.772 3.423 2.755-1.19 3.958-2.877 4.209-5.952.25-2.728-.852-5.208-2.957-6.696-1.703-1.24-5.662-1.587-7.716-.645Zm6.063 3.423c1.353 1.885.751 6.25-.952 7.39-.301.199-1.153.397-1.904.397-3.859 0-4.71-7.589-.953-8.829 1.704-.545 2.907-.248 3.809 1.042Zm14.03-3.274c-1.002.546-1.503.595-1.654.199-.1-.298-1.252-.546-2.655-.546-2.255 0-2.456.1-2.456 1.19 0 .744.351 1.29 1.002 1.439.902.248 1.003.694 1.003 4.265 0 3.67-.101 4.018-1.003 4.018-.801 0-1.002.347-1.002 1.488v1.488h7.015v-1.488c0-.992-.25-1.488-.751-1.488-1.203 0-1.053-6.498.15-7.589.501-.496 1.253-.843 1.654-.843 1.503 0 1.954 1.19 1.954 4.811 0 2.877-.151 3.621-.752 3.621-.501 0-.751.496-.751 1.488v1.488h6.513v-1.488c0-1.042-.25-1.488-.801-1.488-.702 0-.802-.496-.602-3.174.201-3.423 1.253-5.258 2.957-5.258 1.353 0 1.954 1.538 1.954 5.158 0 2.58-.15 3.274-.752 3.274-.501 0-.751.496-.751 1.488v1.488h7.015v-1.488c0-1.14-.201-1.488-1.002-1.488-.902 0-1.002-.347-1.002-3.968 0-4.414-.552-6.1-2.356-6.894-1.753-.794-3.206-.695-4.96.396-1.453.893-1.553.893-2.656 0-1.403-1.14-3.307-1.19-5.311-.099Zm25.755.1c-1.152.843-1.403.892-1.654.297-.2-.546-1.002-.744-2.806-.744-2.304 0-2.505.1-2.505 1.19 0 .744.351 1.29 1.002 1.439.952.248 1.002.694 1.002 7.49 0 6.894-.05 7.241-1.002 7.241-.801 0-1.002.347-1.002 1.488v1.488h7.516v-1.488c0-1.14-.2-1.488-1.002-1.488-.852 0-1.002-.347-1.002-2.58 0-2.38.05-2.48.902-1.785 1.353 1.19 2.906 1.488 5.061.893 4.91-1.29 6.514-8.283 2.856-12.3-2.055-2.233-5.362-2.729-7.366-1.142Zm4.51 3.323c1.503 1.884 1.403 4.86-.201 6.398-1.503 1.488-2.706 1.538-4.459.198-1.103-.843-1.303-1.388-1.303-3.472 0-1.785.25-2.678 1.002-3.422 1.453-1.438 3.708-1.29 4.961.298Zm9.67-3.224-2.204 1.09 1.002.993c1.002.942 1.102.942 2.906.099 2.556-1.19 4.911-.546 5.111 1.438.2 1.39.15 1.439-1.904 1.092-5.562-.893-8.969 2.43-6.765 6.646 1.203 2.331 5.462 3.075 7.667 1.34.451-.348.802-.348 1.203.049.35.347 1.553.595 2.755.595 2.055 0 2.155-.05 2.155-1.488 0-.992-.25-1.488-.752-1.488-.601 0-.751-.794-.751-4.365 0-4.067-.1-4.464-1.253-5.555-1.854-1.736-6.263-1.934-9.17-.446Zm5.813 7.192c.902.248 1.102.644 1.002 1.636-.351 2.778-5.412 3.125-5.412.348 0-1.885 1.804-2.679 4.41-1.984Zm15.884-7.39c-1.002.545-1.503.594-1.654.198-.1-.298-1.252-.546-2.655-.546-2.255 0-2.456.1-2.456 1.19 0 .744.351 1.29 1.003 1.439.902.248 1.002.694 1.002 4.265 0 3.67-.1 4.018-1.002 4.018-.802 0-1.003.347-1.003 1.488v1.488h7.016v-1.488c0-.992-.251-1.488-.752-1.488-.601 0-.752-.694-.752-3.472 0-3.125.101-3.522 1.253-4.266 2.606-1.686 4.259.15 4.259 4.861 0 2.232-.15 2.877-.751 2.877-.502 0-.752.496-.752 1.488v1.488h6.514v-1.488c0-.992-.251-1.488-.752-1.488-.601 0-.751-.694-.751-3.472 0-3.869-.902-6.597-2.405-7.39-1.454-.744-3.608-.645-5.362.297Zm24.853.049c-2.756 1.339-3.708 3.075-3.708 6.497 0 2.43.201 3.274 1.353 4.712 2.255 2.927 6.614 3.472 10.322 1.19 1.654-.942 1.654-.991.652-1.934-.902-.892-1.052-.942-2.455-.198-2.005 1.042-4.009.942-5.212-.248-2.104-2.083-1.403-2.48 4.059-2.48h5.111l-.351-2.034c-.2-1.14-.651-2.678-1.052-3.472-1.503-2.777-5.462-3.72-8.719-2.033Zm4.861 2.38c.601.397 1.102 1.191 1.102 1.737 0 .843-.351.942-3.006.942-3.408 0-3.909-.694-1.704-2.43 1.603-1.24 2.155-1.29 3.608-.248Zm9.119-1.884c-2.705 2.728-1.753 5.257 2.706 7.043 3.708 1.438 4.46 3.472 1.303 3.472-.952 0-1.754-.446-2.405-1.24-.551-.694-1.453-1.24-2.055-1.24-.952 0-1.052.298-1.052 2.48 0 2.331.1 2.48 1.253 2.48.701 0 1.252-.198 1.252-.446 0-.298.802-.15 1.804.248 4.31 1.785 8.268-1.984 6.164-5.853-.301-.546-1.804-1.538-3.358-2.232-3.156-1.389-3.808-2.034-3.006-2.976.752-.943 2.255-.794 3.407.347.551.546 1.453.992 2.005.992.851 0 1.002-.347 1.002-1.984 0-1.934-.05-2.034-1.604-1.984-.902 0-2.605-.149-3.758-.298-1.904-.248-2.305-.148-3.658 1.19Zm-27.058.297c0 .744.351 1.29 1.002 1.439.902.248 1.003.694 1.003 4.265 0 3.67-.101 4.018-1.003 4.018-.801 0-1.002.347-1.002 1.488v1.488h7.516v-1.488c0-1.14-.2-1.488-1.002-1.488-.952 0-1.002-.347-1.002-4.662 0-6.15-.05-6.25-3.056-6.25-2.255 0-2.456.1-2.456 1.19Z" />
  <path fill="#000"
    d="M14.03 20.336c0 3.62.1 3.968 1.002 3.968.952 0 1.002.347 1.002 9.92s-.05 9.92-1.002 9.92c-.902 0-1.002.347-1.002 3.968v3.968h12.026v-3.968c0-3.62-.1-3.968-1.002-3.968s-1.002-.347-1.002-2.976v-2.976h16.034v2.976c0 2.629-.1 2.976-1.002 2.976s-1.002.347-1.002 3.968v3.968h12.026v-3.968c0-3.62-.1-3.968-1.003-3.968-.952 0-1.002-.347-1.002-9.92s.05-9.92 1.002-9.92c.902 0 1.003-.347 1.003-3.968v-3.968H38.082v3.968c0 3.62.1 3.968 1.002 3.968s1.002.347 1.002 2.976v2.976H24.052V27.28c0-2.629.1-2.976 1.002-2.976s1.002-.347 1.002-3.968v-3.968H14.03v3.968Zm60.63 11.408c0 1.24.2 1.488 1.253 1.488h1.303l-.15 7.787c-.15 7.688-.15 7.837-1.253 7.986-.902.149-1.153.496-1.153 1.637v1.438h8.519v-1.488c0-1.14-.2-1.488-1.003-1.488-.902 0-1.002-.347-1.002-3.472V42.16h9.52v3.472c0 3.125-.1 3.472-1.002 3.472-.801 0-1.002.347-1.002 1.488v1.488h8.519v-1.438c0-1.141-.25-1.488-1.103-1.637-1.152-.149-1.152-.298-1.303-7.986l-.15-7.787h1.303c1.052 0 1.253-.248 1.253-1.488v-1.488H88.69v1.488c0 1.14.2 1.488 1.002 1.488.902 0 1.003.347 1.003 2.976v2.976h-9.52v-2.976c0-2.629.1-2.976 1.001-2.976.802 0 1.002-.347 1.002-1.488v-1.488H74.66v1.488Zm28.762 6.646c-3.608 1.588-5.06 5.952-3.307 9.87 1.653 3.671 5.812 5.16 9.771 3.423 2.756-1.19 3.958-2.877 4.209-5.952.25-2.728-.852-5.208-2.956-6.696-1.704-1.24-5.663-1.587-7.717-.645Zm6.063 3.423c1.353 1.885.752 6.25-.952 7.39-.301.199-1.153.397-1.904.397-3.858 0-4.71-7.589-.952-8.829 1.703-.545 2.906-.248 3.808 1.042Zm26.807-2.728c-2.705 2.728-1.753 5.257 2.706 7.043 3.708 1.438 4.46 3.472 1.303 3.472-.952 0-1.754-.446-2.405-1.24-.551-.694-1.453-1.24-2.054-1.24-.953 0-1.053.298-1.053 2.48 0 2.331.1 2.48 1.253 2.48.701 0 1.253-.198 1.253-.446 0-.298.801-.15 1.804.248 4.309 1.785 8.267-1.984 6.163-5.853-.301-.546-1.804-1.538-3.357-2.232-3.157-1.389-3.809-2.034-3.007-2.976.752-.943 2.255-.794 3.407.347.552.546 1.454.992 2.005.992.852 0 1.002-.347 1.002-1.984 0-1.934-.05-2.034-1.604-1.984-.902 0-2.605-.149-3.758-.298-1.904-.248-2.305-.148-3.658 1.19Zm15.584-.496c-2.756 1.339-3.708 3.075-3.708 6.497 0 2.43.2 3.274 1.353 4.712 2.255 2.927 6.614 3.472 10.322 1.19 1.654-.942 1.654-.991.651-1.934-.902-.892-1.052-.942-2.455-.198-2.004 1.042-4.008.942-5.211-.248-2.105-2.083-1.403-2.48 4.059-2.48h5.111l-.351-2.034c-.201-1.14-.652-2.678-1.052-3.472-1.504-2.777-5.462-3.72-8.719-2.033Zm4.86 2.38c.602.397 1.103 1.191 1.103 1.737 0 .843-.351.942-3.007.942-3.407 0-3.908-.694-1.703-2.43 1.603-1.24 2.154-1.29 3.607-.248Zm-40.487-1.537c0 .794.301 1.24.752 1.24.601 0 .752.744.752 3.67 0 4.514.701 6.548 2.555 7.49 1.854.992 2.906.942 4.811-.198 1.302-.794 1.603-.844 1.853-.248.201.446 1.053.694 2.807.694 2.455 0 2.505-.05 2.505-1.488 0-1.14-.201-1.488-1.002-1.488-.952 0-1.002-.347-1.002-5.456v-5.456h-2.506c-2.305 0-2.505.1-2.505 1.19 0 .645.351 1.29.751 1.488.552.199.752 1.042.752 3.274 0 2.53-.2 3.224-1.253 4.216-1.403 1.438-1.703 1.488-3.056.546-.802-.596-1.002-1.439-1.103-5.704l-.2-5.01h-2.455c-2.305 0-2.456.1-2.456 1.24Z" />
</svg>
