<svg xmlns="http://www.w3.org/2000/svg" fill="none" height="36" viewBox="0 0 325 83">
  <path fill="#000"
    d="M49.756 22.02a.327.327 0 0 1 .375.376v4.313c0 .235 0 .328-.375.328h-20.77v12.097h15.05a.329.329 0 0 1 .375.375v4.267c0 .234 0 .328-.375.328h-15.05v12.097h20.77a.328.328 0 0 1 .375.375v4.267c0 .234 0 .328-.375.328H24.391s-.375-.094-.375-.328v-38.4a.329.329 0 0 1 .375-.422h25.365ZM93.97 22.02a.328.328 0 0 1 .375.423v38.4c0 .234 0 .328-.375.328h-4.032c-.234 0-.375 0-.375-.328V31.867L78.545 44.15a.33.33 0 0 1-.516 0L67.058 31.867v28.976c0 .234 0 .328-.329.328H62.65c-.234 0-.328 0-.328-.328v-38.4s0-.376.328-.376h1.594a.844.844 0 0 1 .704.329l13.362 14.91 13.316-14.91a.986.986 0 0 1 .75-.375h1.594ZM135.418 22.02s.328 0 .328.376v4.313c0 .235 0 .328-.328.328H114.6v12.097h15.051a.326.326 0 0 1 .363.223c.016.049.02.101.012.152v4.267c0 .234 0 .328-.375.328H114.6v12.097h20.818s.328 0 .328.375v4.267c0 .234 0 .328-.328.328h-25.413c-.234 0-.375 0-.375-.328v-38.4a.33.33 0 0 1 .375-.422h25.413ZM174.287 60.655a.517.517 0 0 1 0 .375.423.423 0 0 1-.328 0h-4.689a.235.235 0 0 1-.281 0l-9.378-16.738h-6.704v16.457a.329.329 0 0 1-.375.375h-4.22c-.282 0-.375 0-.375-.375V22.396s0-.329.375-.329h14.347a10.642 10.642 0 0 1 7.971 3.33 10.599 10.599 0 0 1 3.141 8.064 10.638 10.638 0 0 1-2.579 6.705 11.392 11.392 0 0 1-6.095 3.75l9.19 16.739Zm-11.628-21.38a6.142 6.142 0 0 0 6.142-6.142 5.993 5.993 0 0 0-1.773-4.356 6.004 6.004 0 0 0-4.369-1.74h-9.752v12.238h9.752ZM214.749 22.02s.329 0 .329.376v38.447c0 .234 0 .328-.329.328h-4.313s-.328 0-.328-.328V44.057h-18.286v16.739c0 .234 0 .328-.375.328h-4.267s-.375 0-.375-.328v-38.4a.329.329 0 0 1 .375-.375h4.267c.281 0 .375 0 .375.375v16.691h18.286V22.442s0-.375.328-.375l4.313-.046ZM257.557 22.02s.328 0 .328.376v24.756a13.448 13.448 0 0 1-4.126 9.846 13.499 13.499 0 0 1-9.799 4.173 13.223 13.223 0 0 1-10.081-4.173 14.06 14.06 0 0 1-4.173-10.128V22.443s.188-.422.61-.422h4.267a.327.327 0 0 1 .435.237.34.34 0 0 1-.013.184v24.475a9.37 9.37 0 0 0 2.485 6.424 9.045 9.045 0 0 0 14.096-1.095 9.047 9.047 0 0 0 1.564-5.094v-24.71a.327.327 0 0 1 .14-.421h4.267ZM294.598 39.884a11.258 11.258 0 0 1 3.985 4.267 11.442 11.442 0 0 1 1.407 6.002 11.016 11.016 0 0 1-3.611 7.923 11.533 11.533 0 0 1-8.205 3.236h-15.05c-.235 0-.375 0-.375-.329v-38.54a.33.33 0 0 1 .375-.422h14.066a10.17 10.17 0 0 1 7.361 3.094 10.16 10.16 0 0 1 2.306 3.316 10.16 10.16 0 0 1 .835 3.951 9.987 9.987 0 0 1-3.094 7.502Zm-16.879-1.781h9.377a5.347 5.347 0 0 0 4.173-1.641 5.29 5.29 0 0 0 1.641-3.892 5.35 5.35 0 0 0-1.641-3.892 5.343 5.343 0 0 0-3.892-1.64H278l-.281 11.065Zm10.69 18.098a6.563 6.563 0 0 0 6.107-9.087 6.576 6.576 0 0 0-3.581-3.555 6.56 6.56 0 0 0-2.526-.486h-10.69V56.2h10.69Z" />
</svg>
