<svg width="1418" height="278" viewBox="0 0 1418 278" fill="none" xmlns="http://www.w3.org/2000/svg">
    <path
        d="M414.939 130.457C406.55 135.635 401.253 127.375 378.874 128.006C360.169 128.512 353.174 134.575 345.799 129.042C339.741 124.495 337.739 115.3 336.396 109.414C336.193 108.53 335.407 104.942 335.255 99.8142C335.205 98.4753 335.255 97.0101 335.306 95.4944C335.61 87.6127 337.663 77.5584 344.43 68.4136C347.269 64.5991 350.234 61.9213 352.338 60.2035C362.247 58.6373 373.095 57.3489 384.804 56.6669C390.862 56.2879 396.716 56.1111 402.317 56.0858C404.345 56.0606 406.347 56.0606 408.324 56.0858C408.856 56.7174 409.439 57.3995 410.098 58.2078C414.939 64.3212 422.213 75.5627 424.291 91.0483C424.393 91.8314 424.646 93.726 424.849 96.3027C425.558 105.65 425.508 123.965 414.964 130.457H414.939Z"
        fill="#F4F4F4" />
    <path
        d="M424.823 96.2775C424.342 96.2775 423.886 96.2522 423.429 96.2269C418.69 96.0249 413.951 95.848 409.186 95.6712C404.218 95.4691 399.2 95.267 394.308 96.1006C389.011 96.9848 383.841 99.0563 378.468 98.8037C371.65 98.4753 365.745 94.4839 359.079 93.4987C354.365 92.8166 350.64 93.6755 346.813 96.3533C343.72 98.5258 341.262 100.345 337.258 100.117C336.548 100.067 335.889 99.9657 335.255 99.7889C335.205 98.45 335.255 96.9848 335.306 95.4691C335.61 87.5874 337.663 77.5331 344.43 68.3883C347.269 64.5738 350.234 61.896 352.338 60.1782C362.247 58.612 373.095 57.3236 384.804 56.6416C390.862 56.2626 396.716 56.0858 402.317 56.0605C403.534 56.2626 404.725 56.5153 405.916 56.8184C407.336 57.1973 408.73 57.652 410.098 58.1825C414.939 64.2959 422.213 75.5375 424.291 91.023C424.393 91.8061 424.646 93.7008 424.849 96.2775H424.823Z"
        fill="#303030" />
    <path
        d="M404.244 4.5768C407.032 0.0801801 413.545 0.00439453 414.559 0.00439453C420.236 0.0296564 423.937 3.59158 424.9 4.5768C425.204 4.87994 431.565 11.448 429.183 19.6834C428.017 23.7253 424.469 29.1313 419.324 29.5103C413.14 29.9903 408.958 22.9674 406.981 19.6834C405.156 16.6267 401.025 9.70496 404.244 4.5768Z"
        fill="#303030" />
    <path
        d="M333.836 32.2134C328.539 32.0871 325.169 26.5295 324.662 25.6453C321.823 20.7445 323.04 15.7679 323.369 14.4543C323.47 14.0501 325.929 5.259 334.267 3.11174C338.348 2.076 344.811 2.37915 347.776 6.62314C351.324 11.7008 347.37 18.8246 345.52 22.2097C343.797 25.3169 339.919 32.365 333.836 32.2134Z"
        fill="#303030" />
    <path
        d="M378.316 0.00448585C403.635 0.383414 428.473 24.8874 423.176 46.5621C419.4 61.9214 400.898 74.2744 378.316 74.0471C354.188 74.6281 335.002 59.4457 332.493 42.3687C329.249 20.2645 354.695 -0.349181 378.316 0.00448585Z"
        fill="#F4F4F4" />
    <path
        d="M375.046 56.49C375.046 56.49 372.867 61.5677 378.341 61.214C382.853 60.9361 381.585 57.1721 380.876 56.2121C380.876 56.2121 378.95 56.6163 377.986 55.2017C377.986 55.2017 376.491 57.2226 375.021 56.49H375.046Z"
        fill="#F26D6E" />
    <path
        d="M378.088 46.6631C378.241 46.6631 378.367 47.623 378.443 49.1893C378.494 49.9724 378.519 50.9071 378.545 51.9428C378.545 52.4733 378.545 53.0038 378.57 53.5596C378.57 53.8375 378.57 54.1406 378.57 54.4185V54.5953L378.773 54.8479C379.482 55.6816 380.395 56.1868 381.307 56.2373C382.22 56.3131 383.056 55.9847 383.74 55.6816C385.084 55.0248 385.819 54.368 385.92 54.469C386.021 54.5448 385.464 55.429 384.095 56.3131C383.411 56.7426 382.448 57.1973 381.282 57.172C380.699 57.172 380.065 57.0205 379.508 56.7173C378.925 56.4142 378.443 56.01 378.012 55.5047C377.886 55.3532 377.784 55.2269 377.658 55.0753C377.632 55.0248 377.531 54.9742 377.556 54.8985V54.4185C377.556 54.1406 377.556 53.8375 377.556 53.5596C377.556 53.0038 377.556 52.4733 377.582 51.9428C377.607 50.9071 377.658 49.9724 377.683 49.1893C377.784 47.623 377.911 46.6631 378.038 46.6631H378.088Z"
        fill="#303030" />
    <path
        d="M378.088 46.6631C378.24 46.6631 378.366 47.623 378.468 49.2145C378.518 49.9977 378.544 50.9323 378.569 51.9681C378.569 52.4986 378.569 53.0291 378.595 53.6101C378.595 53.888 378.595 54.1911 378.595 54.469V54.7722C378.595 54.7722 378.62 54.9237 378.595 54.9742L378.468 55.1511L378.29 55.3784C378.29 55.3784 378.189 55.5047 378.138 55.5553C377.733 56.0605 377.226 56.49 376.643 56.7931C376.085 57.0962 375.452 57.2478 374.843 57.2478C373.652 57.2478 372.689 56.7931 372.005 56.3384C370.636 55.4037 370.104 54.5195 370.205 54.4437C370.307 54.3427 371.042 55.0248 372.385 55.7068C373.044 56.0352 373.906 56.3384 374.818 56.2879C375.731 56.2373 376.643 55.7321 377.327 54.8732L377.454 54.7216L377.555 54.5953V54.469C377.555 54.1659 377.555 53.888 377.555 53.6101C377.555 53.0543 377.555 52.4986 377.581 51.9681C377.606 50.9323 377.657 49.9977 377.682 49.2145C377.783 47.6483 377.91 46.6631 378.062 46.6631H378.088Z"
        fill="#303030" />
    <path
        d="M378.088 39.7666C374.16 39.7666 370.992 42.0654 370.992 44.8948C370.992 47.7241 374.16 50.0229 378.088 50.0229C382.017 50.0229 385.185 47.7241 385.185 44.8948C385.185 42.0654 382.017 39.7666 378.088 39.7666Z"
        fill="#303030" />
    <path
        d="M356.596 50.0987C355.05 51.185 354.441 52.9786 355.252 54.0901C356.038 55.2016 357.939 55.2269 359.46 54.1153C361.006 53.0291 361.614 51.2355 360.803 50.124C360.017 49.0124 358.116 48.9872 356.596 50.0987Z"
        fill="#FACCD9" />
    <path
        d="M400.29 50.0987C401.836 51.185 402.444 52.9786 401.633 54.0901C400.848 55.2016 398.947 55.2269 397.426 54.1153C395.88 53.0291 395.297 51.2355 396.083 50.124C396.869 49.0124 398.769 48.9872 400.29 50.0987Z"
        fill="#FACCD9" />
    <path
        d="M339.133 40.5752C337.233 30.1168 355.303 17.6122 361.335 20.8962C365.492 23.1698 365.086 33.6282 361.335 40.5752C360.322 42.4699 356.19 50.0484 349.525 49.7958C344.507 49.5937 339.945 45.0466 339.133 40.5752Z"
        fill="#303030" />
    <path
        d="M351.603 35.4216C351.603 33.6533 353.047 32.2134 354.821 32.2134C356.595 32.2134 358.04 33.6533 358.04 35.4216C358.04 37.19 356.595 38.6299 354.821 38.6299C353.047 38.6299 351.603 37.19 351.603 35.4216Z"
        fill="#F4F4F4" />
    <path
        d="M417.753 40.5752C419.654 30.1168 401.583 17.6122 395.551 20.8962C391.394 23.1698 391.8 33.6282 395.551 40.5752C396.565 42.4699 400.696 50.0484 407.361 49.7958C412.38 49.5937 416.942 45.0466 417.753 40.5752Z"
        fill="#303030" />
    <path
        d="M405.283 35.4216C405.283 33.6533 403.838 32.2134 402.064 32.2134C400.29 32.2134 398.845 33.6533 398.845 35.4216C398.845 37.19 400.29 38.6299 402.064 38.6299C403.838 38.6299 405.283 37.19 405.283 35.4216Z"
        fill="#F4F4F4" />
    <path
        d="M407.919 112.799C402.343 120.15 402.293 129.472 407.792 133.615C413.292 137.757 422.264 135.13 427.84 127.804C433.416 120.453 433.467 111.131 427.967 106.989C422.467 102.846 413.495 105.448 407.919 112.799Z"
        fill="#303030" />
    <path
        d="M353.554 113.784C348.435 106.104 339.64 102.972 333.912 106.761C328.159 110.55 327.652 119.872 332.772 127.526C337.891 135.206 346.686 138.339 352.414 134.549C358.167 130.76 358.674 121.438 353.554 113.759V113.784Z"
        fill="#303030" />
    <path
        d="M53.6257 206.924C62.6484 205.08 71.4683 203.413 80.0855 201.923C88.7027 200.432 97.2692 198.916 105.81 197.426C108.826 197.098 111.868 196.769 114.96 196.416C118.052 196.087 121.017 196.163 123.856 196.668C129.71 196.997 134.678 199.245 138.784 203.413C142.89 207.581 145.348 212.406 146.184 217.913C147.35 224.406 146.717 230.418 144.309 235.925C141.876 241.432 137.745 245.525 131.89 248.177C129.051 249.668 126.035 250.855 122.867 251.689C119.699 252.522 116.607 253.103 113.591 253.432C101.552 254.265 89.7672 255.806 78.21 258.055C66.6782 260.303 55.2224 263.107 43.8426 266.441C32.1334 269.271 22.5278 267.856 15.0004 262.197C7.47303 256.539 2.78427 247.192 0.959449 234.182C0.782037 232.338 0.629969 230.469 0.452556 228.549C0.275144 226.629 0.19911 224.759 0.19911 222.915C-0.130371 199.245 -0.0543371 175.701 0.452556 152.283C0.95945 128.865 2.30272 105.473 4.45701 82.1307C4.78649 79.9582 5.16666 77.7099 5.59752 75.3858C6.00304 73.0617 6.63665 70.8134 7.47303 68.6409C8.8163 65.1295 10.6918 62.3001 13.1249 60.1276C15.558 57.9551 18.5233 56.7173 22.0209 56.3889C25.6958 56.0605 28.9146 56.7173 31.6772 58.3846C34.4398 60.0518 36.6447 62.5528 38.3175 65.8873C40.8266 71.066 42.5754 76.5479 43.5892 82.3834C44.9324 96.7321 46.225 111.056 47.4669 125.404C48.7088 139.753 50.0267 154.077 51.3446 168.425C51.6741 174.438 52.0036 180.551 52.3584 186.816C52.6879 193.056 53.1188 199.775 53.6003 206.95L53.6257 206.924Z"
        fill="#60C6C6" />
    <path
        d="M210.686 246.939C209.191 250.451 207.67 253.684 206.175 256.69C205.009 259.015 203.869 261.288 202.779 263.435C201.689 265.608 200.32 267.604 198.648 269.448C196.139 272.959 193.097 275.233 189.498 276.319C185.899 277.405 182.022 277.355 177.84 276.193C173.658 275.182 170.363 273.313 167.93 270.559C165.497 267.806 164.128 264.446 163.799 260.429C162.962 252.093 163.216 243.605 164.559 234.915C167.398 217.737 171.706 201.165 177.485 185.149C183.263 169.133 189.574 153.142 196.417 137.126C201.258 125.783 206.327 114.618 211.599 103.629C216.87 92.6145 222.168 81.6256 227.541 70.6114C230.202 65.2811 233.699 60.9108 237.957 57.4752C242.215 54.0648 247.538 52.1955 253.899 51.8418C258.081 51.665 261.959 52.2965 265.558 53.7112C269.157 55.1258 272.249 57.0963 274.834 59.5972C277.419 62.0981 279.396 65.0538 280.739 68.4641C282.082 71.8745 282.488 75.689 281.981 79.832C282.158 94.0039 282.767 108.353 283.856 122.853C284.946 137.353 286.29 151.727 287.861 166C289.458 180.248 291.206 194.344 293.133 208.263C295.059 222.183 297.112 235.572 299.291 248.405C300.305 251.739 300.533 254.998 300.052 258.156C299.545 261.313 298.455 264.168 296.782 266.669C295.109 269.17 292.93 271.241 290.269 272.909C287.582 274.576 284.667 275.662 281.499 276.167C275.138 277.001 269.663 275.384 265.076 271.292C260.463 267.199 257.929 261.667 257.422 254.669V251.032C257.422 249.794 257.346 248.405 257.169 246.914H210.762L210.686 246.939ZM251.339 216.676C250.173 207.834 249.084 199.346 248.07 191.161C247.056 183.001 245.966 174.918 244.8 166.91C240.289 174.918 236.132 183.001 232.381 191.161C228.63 199.321 225.31 207.834 222.472 216.676H251.314H251.339Z"
        fill="#9665AB" />
    <path
        d="M388.809 118.634C381.459 117.801 374.413 117.017 367.747 116.26C361.056 115.502 354.543 114.542 348.181 113.38C343.822 112.875 339.691 112.041 335.762 110.879C331.834 109.717 328.032 108.302 324.357 106.635C319.846 104.639 316.754 101.709 315.081 97.8942C313.408 94.0544 312.977 89.8862 313.839 85.3896C314.675 81.2214 316.602 77.8868 319.618 75.3859C322.634 72.885 326.385 71.2935 330.896 70.6366C331.732 70.4598 332.619 70.384 333.532 70.384H336.168C350.893 70.5609 365.441 70.8135 379.811 71.1419C394.182 71.4703 408.755 71.3945 423.455 70.8893C428.625 70.7124 433.491 71.7734 438.003 74.0217C442.514 76.27 446.163 79.4025 448.926 83.3939C451.689 87.3853 453.311 92.0335 453.818 97.2627C454.324 102.517 453.159 107.974 450.295 113.632C448.799 116.462 447.076 119.266 445.15 122.019C443.223 124.773 441.348 127.552 439.498 130.406C430.957 142.582 422.568 154.658 414.28 166.657C405.992 178.656 397.603 190.757 389.062 202.908C387.896 204.398 386.832 206.066 385.919 207.91C385.007 209.754 383.866 211.648 382.523 213.669C390.05 213.164 397.248 212.634 404.091 212.053C410.934 211.472 417.879 211.017 424.925 210.689C427.434 210.512 430.019 210.613 432.705 210.941C435.367 211.27 438.053 211.775 440.74 212.432C445.581 213.594 449.433 215.69 452.272 218.671C455.11 221.677 456.783 225.164 457.29 229.18C457.797 234.182 456.986 238.426 454.907 241.937C452.804 245.449 449.762 248.278 445.758 250.451C440.41 253.608 435.139 255.705 429.943 256.69C418.234 258.686 406.524 260.657 394.815 262.576C383.106 264.496 371.397 266.366 359.687 268.21C356.342 268.538 353.073 268.917 349.904 269.347C346.736 269.751 343.543 269.978 340.375 269.978C335.179 269.978 330.668 268.968 326.815 266.972C322.963 264.976 319.947 262.299 317.793 258.964C315.613 255.629 314.371 251.714 314.042 247.217C313.712 242.721 314.447 238.047 316.297 233.222C318.148 229.054 320.226 224.936 322.558 220.844C324.889 216.751 327.246 212.811 329.578 208.971C338.119 195.809 346.686 182.724 355.303 169.714C363.92 156.704 372.664 143.694 381.509 130.709C382.675 128.865 383.816 126.996 384.905 125.076C385.995 123.156 387.288 121.034 388.783 118.71L388.809 118.634Z"
        fill="#F05B7F" />
    <path
        d="M585.255 150.894C577.55 162.893 569.566 170.851 561.304 174.766C553.016 178.682 544.83 179.642 536.72 177.646C528.609 175.65 520.829 171.305 513.377 164.636C505.926 157.967 499.235 150.085 493.304 141.016C487.374 131.922 482.381 122.297 478.376 112.142C474.372 101.987 471.761 92.3115 470.595 83.1414C469.937 80.3121 469.835 77.0533 470.342 73.3903C471.356 65.736 475.183 60.5573 481.874 57.8795C485.219 56.5406 488.261 56.2627 491.023 56.9953C493.786 57.7532 496.32 59.2942 498.677 61.6183C500.528 63.9424 502.276 66.3422 503.949 68.7421C505.622 71.1673 507.117 73.7945 508.46 76.6238C515.329 91.9578 522.096 103.427 528.787 111.005C535.478 118.584 542.574 122.171 550.102 121.767C557.629 121.363 565.739 116.891 574.433 108.378C583.126 99.8648 593.01 87.1328 604.035 70.1063C607.381 65.2812 611.689 62.4519 616.961 61.593C622.233 60.7594 627.378 61.5172 632.396 63.8413C637.237 66.3422 641.165 70.3841 644.181 75.967C647.197 81.5499 648.287 87.5875 647.451 94.1051C646.792 99.9406 645.955 105.65 644.941 111.233C643.928 116.815 642.838 122.348 641.672 127.855C639.822 137.682 638.073 147.989 636.4 158.75C634.728 169.512 632.928 179.995 631.002 190.252C629.076 200.508 626.997 210.259 624.742 219.505C622.486 228.751 619.901 236.835 616.961 243.756C614.021 250.678 610.726 256.185 607.051 260.252C603.376 264.345 599.093 266.366 594.252 266.366C591.236 267.023 588.347 267.023 585.584 266.366C582.822 265.709 580.389 264.446 578.31 262.627C576.207 260.783 574.509 258.509 573.165 255.756C571.822 253.002 571.062 249.794 570.91 246.131C570.58 238.477 570.606 230.923 571.036 223.496C571.442 216.069 572.506 208.617 574.179 201.114C576.029 193.283 577.829 185.275 579.578 177.116C581.326 168.956 583.227 160.19 585.229 150.869L585.255 150.894Z"
        fill="#F5B851" />
    <path
        d="M887.313 143.896C888.327 144.73 889.188 145.488 889.949 146.145C890.709 146.801 891.495 147.483 892.331 148.14C899.351 153.47 904.877 159.559 908.881 166.405C912.885 173.251 915.623 180.374 917.042 187.776C918.461 195.203 918.588 202.731 917.422 210.411C916.256 218.09 914.001 225.29 910.655 232.035C907.31 238.78 903.001 244.969 897.729 250.552C892.458 256.135 886.4 260.606 879.532 263.941C857.964 274.273 836.218 275.536 814.295 267.679C811.608 266.846 809.201 266.391 807.021 266.315C804.841 266.24 802.332 266.947 799.493 268.437C794.653 271.267 789.736 271.949 784.819 270.433C779.877 268.943 775.746 265.76 772.4 260.935C769.055 256.438 766.621 251.562 765.126 246.308C763.631 241.053 762.794 235.597 762.617 229.938C762.11 207.278 761.654 184.719 761.248 162.287C760.817 139.88 761.705 117.397 763.884 94.8882C764.062 93.0441 764.29 91.1494 764.645 89.1285C764.974 87.1328 765.557 85.2887 766.393 83.6214C766.9 82.2825 767.61 80.9689 768.522 79.63C769.435 78.2911 770.474 77.4575 771.665 77.1291C775.188 75.967 778.432 74.426 781.448 72.5061C784.464 70.5862 787.48 68.6411 790.471 66.6201C793.487 64.6244 796.528 62.654 799.62 60.7341C802.712 58.8142 805.931 57.1974 809.276 55.8586C817.133 52.8524 824.965 50.9072 832.746 49.9725C840.526 49.0631 848.434 49.5178 856.443 51.3367C865.314 53.3324 872.968 56.869 879.405 61.9719C885.843 67.0496 890.81 73.1377 894.333 80.2363C897.856 87.3349 899.757 95.0397 900.112 103.376C900.441 111.713 898.87 120.125 895.347 128.638C894.181 130.962 892.914 133.387 891.596 135.888C890.253 138.389 888.833 141.067 887.338 143.896H887.313ZM810.037 139.147C816.55 136.495 822.709 133.817 828.488 131.139C834.266 128.486 839.487 124.798 844.176 120.125C846.178 118.129 847.699 115.881 848.687 113.38C850.538 109.212 850.538 105.624 848.687 102.618C846.837 99.6121 843.669 97.8691 839.158 97.3638C834.647 96.8586 830.262 97.187 825.979 98.3743C821.721 99.5364 817.666 101.38 813.813 103.881C811.482 105.372 809.631 107.342 808.288 109.767C806.945 112.193 806.539 115.072 807.046 118.382C807.553 121.539 808.009 124.748 808.415 128.007C808.82 131.265 809.378 134.979 810.037 139.147ZM813.788 185.149C814.447 197.654 815.461 210.992 816.804 225.164C824.331 225.821 831.554 225.821 838.499 225.164C845.443 224.507 852.261 222.739 858.952 219.909C861.791 218.747 864.249 217.004 866.353 214.655C868.431 212.331 870.078 209.703 871.244 206.773C872.41 203.868 873.044 200.887 873.12 197.906C873.196 194.9 872.663 192.071 871.498 189.393C870.154 186.564 868.355 184.063 866.099 181.89C863.844 179.718 861.334 178.05 858.572 176.888C855.809 175.726 852.844 175.044 849.676 174.893C846.508 174.716 843.416 175.221 840.4 176.383C836.218 177.873 831.96 179.313 827.601 180.627C823.241 181.966 818.654 183.456 813.813 185.124L813.788 185.149Z"
        fill="#F05B7F" />
    <path
        d="M977.337 246.156C975.715 249.592 974.093 252.8 972.496 255.756C971.254 258.055 970.038 260.252 968.872 262.4C967.706 264.522 966.261 266.467 964.538 268.26C961.902 271.671 958.785 273.868 955.16 274.828C951.536 275.788 947.633 275.612 943.502 274.298C939.345 273.161 936.127 271.165 933.795 268.336C931.463 265.507 930.196 262.096 929.993 258.08C929.436 249.718 929.993 241.23 931.615 232.616C935.037 215.564 939.903 199.119 946.239 183.33C952.55 167.541 959.418 151.753 966.819 135.989C972.04 124.823 977.489 113.834 983.141 103.022C988.793 92.2103 994.47 81.3982 1000.2 70.5861C1003.06 65.3569 1006.66 61.0876 1011.05 57.8289C1015.43 54.5701 1020.8 52.8775 1027.16 52.7512C1031.35 52.7512 1035.22 53.4838 1038.77 55.0248C1042.32 56.5658 1045.34 58.6372 1047.85 61.214C1050.35 63.7907 1052.21 66.8221 1053.45 70.283C1054.66 73.7438 1054.97 77.5584 1054.31 81.7013C1053.98 95.8733 1054.13 110.222 1054.71 124.748C1055.3 139.273 1056.16 153.698 1057.25 167.996C1058.34 182.294 1059.63 196.441 1061.08 210.411C1062.52 224.38 1064.12 237.82 1065.84 250.729C1066.73 254.088 1066.88 257.347 1066.27 260.505C1065.66 263.663 1064.47 266.442 1062.72 268.892C1060.97 271.342 1058.72 273.338 1055.98 274.93C1053.24 276.496 1050.28 277.481 1047.09 277.885C1040.7 278.491 1035.27 276.698 1030.84 272.454C1026.38 268.21 1024.02 262.576 1023.77 255.579L1023.9 251.966C1023.95 250.729 1023.9 249.339 1023.79 247.823L977.413 246.257L977.337 246.156ZM1019 217.307C1018.14 208.44 1017.33 199.902 1016.62 191.717C1015.89 183.532 1015.08 175.398 1014.19 167.364C1009.4 175.221 1004.99 183.153 1000.96 191.186C996.928 199.22 993.329 207.607 990.187 216.347L1019.03 217.332L1019 217.307Z"
        fill="#FAA431" />
    <path
        d="M1208.96 143.896C1209.98 144.73 1210.84 145.488 1211.6 146.145C1212.36 146.801 1213.14 147.483 1213.98 148.14C1221 153.47 1226.53 159.559 1230.53 166.405C1234.53 173.251 1237.27 180.374 1238.69 187.776C1240.11 195.203 1240.24 202.731 1239.07 210.411C1237.91 218.09 1235.65 225.29 1232.3 232.035C1228.96 238.78 1224.65 244.969 1219.38 250.552C1214.11 256.135 1208.05 260.606 1201.18 263.941C1179.61 274.273 1157.87 275.536 1135.94 267.679C1133.26 266.846 1130.85 266.391 1128.67 266.315C1126.49 266.24 1123.98 266.947 1121.14 268.437C1116.3 271.267 1111.39 271.949 1106.47 270.433C1101.53 268.943 1097.39 265.76 1094.05 260.935C1090.7 256.438 1088.27 251.562 1086.78 246.308C1085.28 241.053 1084.44 235.597 1084.27 229.938C1083.76 207.278 1083.3 184.719 1082.9 162.287C1082.47 139.88 1083.35 117.397 1085.53 94.8882C1085.71 93.0441 1085.94 91.1494 1086.29 89.1285C1086.62 87.1328 1087.21 85.2887 1088.04 83.6214C1088.55 82.2825 1089.26 80.9689 1090.17 79.63C1091.08 78.2911 1092.12 77.4575 1093.31 77.1291C1096.84 75.967 1100.08 74.426 1103.1 72.5061C1106.11 70.5862 1109.13 68.6411 1112.12 66.6201C1115.14 64.6244 1118.18 62.654 1121.27 60.7341C1124.36 58.8142 1127.58 57.1974 1130.93 55.8586C1138.78 52.8524 1146.61 50.9072 1154.4 49.9725C1162.18 49.0631 1170.08 49.5178 1178.09 51.3367C1186.96 53.3324 1194.62 56.869 1201.05 61.9719C1207.49 67.0496 1212.46 73.1377 1215.98 80.2363C1219.51 87.3349 1221.41 95.0397 1221.76 103.376C1222.09 111.713 1220.52 120.125 1217 128.638C1215.83 130.962 1214.56 133.387 1213.25 135.888C1211.9 138.389 1210.48 141.067 1208.99 143.896H1208.96ZM1131.69 139.147C1138.2 136.495 1144.36 133.817 1150.14 131.139C1155.92 128.486 1161.14 124.798 1165.83 120.125C1167.83 118.129 1169.35 115.881 1170.34 113.38C1172.19 109.212 1172.19 105.624 1170.34 102.618C1168.49 99.6121 1165.32 97.8691 1160.81 97.3638C1156.3 96.8586 1151.91 97.187 1147.63 98.3743C1143.37 99.5364 1139.32 101.38 1135.46 103.881C1133.13 105.372 1131.28 107.342 1129.94 109.767C1128.59 112.193 1128.19 115.072 1128.7 118.382C1129.2 121.539 1129.66 124.748 1130.06 128.007C1130.47 131.265 1131.03 134.979 1131.69 139.147ZM1135.44 185.149C1136.1 197.654 1137.11 210.992 1138.45 225.164C1145.98 225.821 1153.2 225.821 1160.15 225.164C1167.09 224.507 1173.91 222.739 1180.6 219.909C1183.44 218.747 1185.9 217.004 1188 214.655C1190.08 212.331 1191.73 209.703 1192.89 206.773C1194.06 203.868 1194.69 200.887 1194.77 197.906C1194.85 194.9 1194.31 192.071 1193.15 189.393C1191.8 186.564 1190 184.063 1187.75 181.89C1185.49 179.718 1182.98 178.05 1180.22 176.888C1177.46 175.726 1174.49 175.044 1171.33 174.893C1168.16 174.716 1165.07 175.221 1162.05 176.383C1157.87 177.873 1153.61 179.313 1149.25 180.627C1144.89 181.966 1140.3 183.456 1135.46 185.124L1135.44 185.149Z"
        fill="#60C6C6" />
    <path
        d="M1355.23 150.894C1347.52 162.893 1339.54 170.851 1331.27 174.766C1322.99 178.682 1314.8 179.642 1306.69 177.646C1298.58 175.65 1290.8 171.305 1283.35 164.636C1275.9 157.967 1269.21 150.085 1263.28 141.016C1257.34 131.922 1252.35 122.297 1248.35 112.142C1244.34 101.987 1241.73 92.3115 1240.57 83.1414C1239.91 80.3121 1239.81 77.0533 1240.31 73.3903C1241.33 65.736 1245.15 60.5573 1251.84 57.8795C1255.19 56.5406 1258.23 56.2627 1260.99 56.9953C1263.76 57.7532 1266.29 59.2942 1268.65 61.6183C1270.5 63.9424 1272.25 66.3422 1273.92 68.7421C1275.59 71.1673 1277.09 73.7945 1278.43 76.6238C1285.3 91.9578 1292.07 103.427 1298.76 111.005C1305.45 118.584 1312.54 122.171 1320.07 121.767C1327.6 121.363 1335.71 116.891 1344.4 108.378C1353.1 99.8648 1362.98 87.1328 1374.01 70.1063C1377.35 65.2812 1381.66 62.4519 1386.93 61.593C1392.2 60.7594 1397.35 61.5172 1402.37 63.8413C1407.21 66.3422 1411.14 70.3841 1414.15 75.967C1417.17 81.5499 1418.26 87.5875 1417.42 94.1051C1416.76 99.9406 1415.93 105.65 1414.91 111.233C1413.9 116.815 1412.81 122.348 1411.64 127.855C1409.79 137.682 1408.04 147.989 1406.37 158.75C1404.7 169.512 1402.9 179.995 1400.97 190.252C1399.05 200.508 1396.97 210.259 1394.71 219.505C1392.46 228.751 1389.87 236.835 1386.93 243.756C1383.99 250.678 1380.7 256.185 1377.02 260.252C1373.35 264.345 1369.06 266.366 1364.22 266.366C1361.21 267.023 1358.32 267.023 1355.55 266.366C1352.79 265.709 1350.36 264.446 1348.28 262.627C1346.18 260.783 1344.48 258.509 1343.14 255.756C1341.79 253.002 1341.03 249.794 1340.88 246.131C1340.55 238.477 1340.58 230.923 1341.01 223.496C1341.41 216.069 1342.48 208.617 1344.15 201.114C1346 193.283 1347.8 185.275 1349.55 177.116C1351.3 168.956 1353.2 160.19 1355.2 150.869L1355.23 150.894Z"
        fill="#9665AB" />
    <path
        d="M354.974 69.2221C354.974 69.2221 358.294 77.0786 351.299 77.0786C351.299 77.0786 348.815 81.4741 343.721 78.7964C343.721 78.7964 340.35 81.0699 336.954 77.2554C336.954 77.2554 328.97 79.3269 331.86 68.1358C334.749 56.9701 353.783 61.8962 354.974 69.1968V69.2221Z"
        fill="#191919" />
    <path
        d="M343.721 77.9375C343.847 77.9375 343.999 77.9627 344.126 78.0385C345.089 78.5438 346.002 78.7964 346.863 78.7964C349.271 78.7964 350.488 76.7502 350.538 76.6491C350.69 76.3712 350.995 76.2197 351.299 76.2197C352.819 76.2197 353.859 75.8155 354.391 75.0071C355.43 73.4409 354.594 70.561 354.163 69.5758C354.137 69.5253 354.112 69.4495 354.112 69.3737C353.833 67.6811 352.287 65.9381 349.879 64.5992C347.446 63.2351 344.43 62.4772 341.617 62.4772C338.804 62.4772 334.014 63.2351 332.696 68.3885C331.834 71.723 331.91 74.1735 332.899 75.4365C333.481 76.1691 334.369 76.5481 335.585 76.5481C336.244 76.5481 336.726 76.4218 336.726 76.4218C337.03 76.346 337.385 76.4218 337.587 76.6744C338.728 77.9375 339.97 78.5943 341.262 78.5943C342.428 78.5943 343.214 78.089 343.214 78.0638C343.366 77.9627 343.543 77.9122 343.695 77.9122L343.721 77.9375ZM346.863 80.5394C345.875 80.5394 344.811 80.2868 343.746 79.8069C343.239 80.0595 342.377 80.3626 341.262 80.3626C340.096 80.3626 338.373 79.9837 336.624 78.2406C336.345 78.2911 335.991 78.3164 335.56 78.3164C333.811 78.3164 332.417 77.7101 331.505 76.5228C330.161 74.7797 329.984 71.8999 330.998 67.959C331.631 65.5086 333 63.614 335.078 62.3762C336.852 61.3152 339.108 60.7341 341.617 60.7341C344.709 60.7341 348.029 61.593 350.716 63.0835C353.605 64.675 355.405 66.7717 355.81 68.9948C356.089 69.6768 357.483 73.4914 355.81 75.967C354.999 77.1796 353.63 77.8617 351.73 77.9375C351.121 78.7711 349.499 80.5394 346.813 80.5394H346.863Z"
        fill="#191919" />
    <path
        d="M400.873 70.3587C400.873 70.3587 397.553 78.2152 404.548 78.2152C404.548 78.2152 407.032 82.6108 412.126 79.933C412.126 79.933 415.497 82.2066 418.893 78.392C418.893 78.392 426.876 80.4635 423.987 69.2725C421.098 58.0815 402.064 63.0328 400.873 70.3335V70.3587Z"
        fill="#191919" />
    <path
        d="M412.126 79.0742C412 79.0742 411.848 79.0995 411.721 79.1752C410.758 79.6805 409.845 79.9331 408.984 79.9331C406.576 79.9331 405.359 77.8869 405.309 77.7858C405.157 77.508 404.852 77.3564 404.548 77.3564C403.028 77.3564 401.988 76.9522 401.456 76.1438C400.417 74.5776 401.253 71.6977 401.684 70.7125C401.71 70.662 401.735 70.5862 401.735 70.5104C402.014 68.8179 403.56 67.0748 405.968 65.7359C408.401 64.3718 411.417 63.6139 414.23 63.6139C417.043 63.6139 421.833 64.3718 423.151 69.5252C424.013 72.8598 423.937 75.3102 422.948 76.5733C422.366 77.3059 421.479 77.6848 420.262 77.6848C419.603 77.6848 419.121 77.5585 419.121 77.5585C418.817 77.4827 418.462 77.5585 418.26 77.8111C417.119 79.0742 415.877 79.731 414.585 79.731C413.419 79.731 412.633 79.2258 412.633 79.2005C412.481 79.0995 412.304 79.0489 412.152 79.0489L412.126 79.0742ZM408.984 81.6762C409.972 81.6762 411.037 81.4236 412.101 80.9436C412.608 81.1962 413.47 81.4993 414.585 81.4993C415.751 81.4993 417.474 81.1204 419.223 79.3773C419.502 79.4279 419.856 79.4531 420.287 79.4531C422.036 79.4531 423.43 78.8468 424.342 77.6595C425.686 75.9165 425.863 73.0366 424.849 69.0958C424.216 66.6453 422.847 64.7507 420.769 63.5129C418.995 62.4519 416.739 61.8708 414.23 61.8708C411.138 61.8708 407.818 62.7298 405.131 64.2202C402.242 65.8117 400.442 67.9084 400.037 70.1315C399.758 70.8136 398.364 74.6281 400.037 77.1038C400.848 78.3163 402.217 78.9984 404.117 79.0742C404.726 79.9078 406.348 81.6762 409.034 81.6762H408.984Z"
        fill="#191919" />
    <g filter="url(#filter0_d_325_42)">
        <path
            d="M1326.36 134.625C1327.19 134.65 1328.06 134.625 1328.89 134.549C1328.89 134.549 1332.64 134.17 1336.39 132.225C1338.93 130.911 1345.54 123.257 1351.98 113.86C1356.24 107.67 1360.4 100.749 1363.31 94.3827C1362.35 86.0968 1355.5 80.3876 1351.8 77.2804C1349.65 75.4868 1347.57 74.1732 1345.32 73.0869C1342.5 73.1374 1339.77 73.2385 1336.39 73.7942C1331.5 74.6026 1324.15 75.8405 1317.06 80.8423C1316.32 81.3476 1315.61 81.8781 1314.9 82.4843C1312.67 84.3032 1305.12 90.846 1303.19 101.027C1302.99 102.163 1302.89 103.275 1302.81 104.311C1302.53 110.55 1304.54 117.371 1307.68 122.752C1311.53 129.37 1318.5 134.423 1326.36 134.65V134.625Z"
            fill="#F4F4F4" />
        <path
            d="M1342.22 111.738C1342.86 112.117 1343.47 112.47 1344.07 112.748C1346.81 114.087 1349.37 114.441 1351.98 113.834C1353.02 112.344 1354.03 110.778 1355.05 109.212C1356.54 106.862 1356.97 106.003 1357.96 104.437C1359.69 101.734 1361.18 99.8899 1362.75 97.97C1364.48 95.848 1366.71 93.2713 1369.54 90.4672C1357.94 82.0045 1353.4 78.5436 1351.8 77.2047C1351.5 76.9521 1350.41 76.0174 1348.79 74.9564C1347.65 74.2238 1346.51 73.567 1345.32 73.0112C1342.5 73.0618 1339.76 73.1628 1336.39 73.7186C1331.5 74.5269 1324.15 75.7648 1317.06 80.7666V80.8424C1317.13 84.5307 1319.06 87.5873 1325.09 94.787C1332.09 103.098 1337.48 108.757 1342.22 111.687V111.738Z"
            fill="#303030" />
        <path
            d="M1346.96 98.4753C1343.54 101.305 1344.33 101.987 1338.27 109.085C1333.13 115.148 1330.29 117.321 1331.07 119.367C1331.73 121.16 1334.9 120.984 1336.17 121.817C1344.4 127.046 1351.47 116.79 1353.3 115.173C1355.23 113.456 1358.75 110.247 1360.55 104.816C1360.85 103.881 1363.54 95.5196 1360.35 93.2461C1356.62 90.5683 1347.45 98.0711 1346.96 98.4753Z"
            fill="#303030" />
        <path
            d="M1373.55 45.4758C1377 43.6569 1381.18 46.0063 1381.84 46.3852C1385.44 48.5072 1386.45 52.1449 1386.73 53.1049C1386.81 53.408 1388.4 59.9509 1383.81 64.3212C1381.56 66.4684 1377.3 68.5904 1373.85 66.9231C1369.75 64.9275 1369.7 58.9404 1369.67 56.0858C1369.67 53.4586 1369.6 47.522 1373.55 45.4505V45.4758Z"
            fill="#232323" />
        <path
            d="M1338.47 85.8694C1328.06 75.0068 1327.09 57.1719 1331.68 50.0481C1331.93 49.6439 1332.34 49.1386 1332.34 49.1386C1332.82 48.4818 1333.18 48.0271 1333.68 47.4713C1333.68 47.4713 1334.01 47.0924 1334.44 46.7135C1334.85 46.3346 1335.25 45.9556 1335.68 45.5767C1337.51 43.9347 1339.39 42.52 1340.86 42.8989C1342.3 43.2526 1342.12 44.9957 1343.39 46.0314C1343.54 46.183 1343.74 46.284 1343.97 46.4103C1345.57 47.1682 1347.12 45.9809 1349.8 45.3999C1353.55 44.5915 1355.3 43.8842 1358.32 43.6063C1364.78 43.0505 1372.79 44.9957 1377.58 49.1639C1388.3 58.4603 1389.04 83.9495 1373.96 93.1954C1362.32 100.344 1346.68 94.4585 1338.47 85.8694Z"
            fill="#F4F4F4" />
        <path
            d="M1333.4 52.1448C1332.9 51.8417 1332.26 51.3617 1331.88 50.6039C1331.81 50.427 1331.73 50.2502 1331.68 50.0481C1331.88 49.7197 1332.11 49.4166 1332.34 49.1387C1332.31 49.5681 1332.34 49.9723 1332.52 50.3007C1332.77 50.907 1333.28 51.3617 1333.71 51.6901C1334.59 52.3469 1335.28 52.5995 1335.25 52.7006C1335.25 52.7764 1334.47 52.7259 1333.43 52.1196L1333.4 52.1448Z"
            fill="#303030" />
        <path
            d="M1339.79 47.9008C1337.74 48.0018 1335.99 46.9914 1335.69 45.5767C1337.51 43.9347 1339.39 42.52 1340.86 42.8989C1342.3 43.2526 1342.12 44.9957 1343.39 46.0314C1342.81 47.0672 1341.44 47.825 1339.82 47.9008H1339.79Z"
            fill="#303030" />
        <path
            d="M1339.03 61.5677C1339.23 62.9318 1338.6 64.1696 1337.61 64.3212C1336.62 64.4728 1335.63 63.4876 1335.43 62.1234C1335.23 60.7593 1335.86 59.5215 1336.85 59.3699C1337.84 59.2183 1338.83 60.2035 1339.03 61.5677Z"
            fill="#FACCD9" />
        <path
            d="M1349.95 70.5861C1357.79 69.9546 1363.29 54.7469 1359.79 51.0839C1357.38 48.5578 1349.98 50.8313 1345.72 54.8227C1344.56 55.909 1339.92 60.2793 1341.39 64.978C1342.48 68.5146 1346.61 70.864 1349.95 70.5861Z"
            fill="#303030" />
        <path
            d="M1350.66 60.9372C1350.89 60.6845 1350.44 59.9263 1349.65 59.2187C1348.86 58.5111 1348.05 58.1573 1347.85 58.3847C1347.62 58.6374 1348.08 59.3956 1348.86 60.1032C1349.65 60.8108 1350.46 61.1646 1350.66 60.9372Z"
            fill="#F4F4F4" />
        <path
            d="M1379.13 54.6713C1382.93 53.2313 1386.91 56.1617 1387.54 56.6417C1390.99 59.2689 1391.6 63.134 1391.72 64.1697C1391.77 64.4981 1392.61 71.4199 1387.34 75.3607C1384.75 77.2806 1380.09 78.9479 1376.77 76.8259C1372.79 74.2745 1373.47 68.0853 1373.8 65.1549C1374.11 62.4519 1374.79 56.3385 1379.13 54.6713Z"
            fill="#303030" />
        <path
            d="M1320.58 134.145C1316.04 132.528 1311.38 133.968 1310.16 137.353C1308.95 140.738 1311.66 144.78 1316.22 146.397C1320.76 148.014 1325.42 146.574 1326.64 143.189C1327.85 139.804 1325.14 135.762 1320.58 134.145Z"
            fill="#303030" />
        <path
            d="M1313.81 134.852C1314.42 133.16 1316.65 133.64 1319.36 130.684C1321.75 128.082 1321.19 126.364 1322.86 125.581C1326.13 124.015 1333.07 128.436 1333.1 132.528C1333.1 133.741 1332.57 134.069 1329.68 138.465C1326.21 143.77 1326.23 144.528 1325.09 144.932C1320.73 146.523 1312.52 138.465 1313.81 134.827V134.852Z"
            fill="#303030" />
        <path
            d="M1332.8 125.026C1335.38 127.173 1338.95 127.097 1340.83 124.874C1342.71 122.651 1342.1 119.114 1339.54 116.967C1336.98 114.82 1333.38 114.896 1331.5 117.119C1329.63 119.342 1330.24 122.878 1332.8 125.026Z"
            fill="#303030" />
        <path
            d="M1321.57 34.9164C1321.57 34.9164 1321.82 35.0932 1322 35.3711C1322.07 35.4974 1322.13 35.6237 1322.15 35.7248C1322.15 35.7753 1322.15 35.9268 1322.15 36.1795C1322.61 37.1142 1323.24 37.9731 1323.8 38.8572C1323.85 38.0994 1323.85 37.5183 1323.85 37.1394C1323.85 36.9878 1323.87 36.9373 1323.95 36.9373C1324 36.9373 1324.03 37.0384 1324.05 37.2152C1324.1 37.9225 1324.13 38.6299 1324.1 39.3625C1324.46 39.9435 1324.69 40.3729 1324.86 40.6761C1325.07 39.7919 1325.29 38.933 1325.47 38.0488C1325.47 37.9731 1325.5 37.8973 1325.5 37.8468C1325.5 37.771 1325.5 37.6699 1325.45 37.6194C1325.37 37.5436 1325.32 37.4678 1325.32 37.392C1325.32 37.3163 1325.34 37.2657 1325.37 37.2405C1325.5 37.2152 1325.6 37.1899 1325.72 37.1647H1325.83C1325.83 37.1647 1325.95 37.2405 1325.98 37.3415C1326.03 37.4426 1326.05 37.5436 1326.08 37.6447C1326.08 37.6952 1326.08 37.8215 1326.03 37.9983C1325.65 39.0088 1325.04 40.3224 1325.07 41.1055C1325.07 41.1813 1325.12 41.3076 1325.09 41.3582C1325.09 41.4087 1325.07 41.535 1324.99 41.6866C1324.94 41.8381 1324.86 41.9392 1324.76 42.015C1324.66 42.0907 1324.61 42.1413 1324.61 42.1413C1324.61 42.1413 1324.58 42.0907 1324.56 42.0402C1324.56 41.9392 1324.56 41.8129 1324.56 41.6866C1324.56 41.636 1324.61 41.5097 1324.69 41.2824C1324.61 41.1055 1324.48 40.8529 1324.33 40.5245C1324.23 40.5245 1324.13 40.4993 1324.03 40.5245C1323.92 40.5245 1323.85 40.5245 1323.82 40.5245L1323.75 40.4487C1323.75 40.4487 1323.75 40.0445 1323.75 39.4888C1323.22 38.5793 1322.63 37.6952 1322.1 36.811C1322.1 36.811 1322.1 37.1899 1322.02 37.9478C1321.97 38.4278 1321.97 38.8067 1322 39.0846C1322 39.4635 1322.1 39.7414 1322.25 39.9435C1322.45 40.2214 1322.71 40.4992 1323.01 40.7771C1323.06 40.8277 1323.09 40.9034 1323.06 41.0045C1323.06 41.0803 1323.01 41.1308 1322.96 41.1055H1322.91C1322.48 40.7519 1322.1 40.3982 1321.82 40.0445C1321.67 39.8424 1321.57 39.5393 1321.54 39.1351C1321.54 38.8572 1321.54 38.3773 1321.59 37.6447C1321.64 36.8615 1321.64 36.331 1321.62 36.0784C1321.47 35.8511 1321.39 35.649 1321.34 35.4721C1321.34 35.3963 1321.31 35.2953 1321.31 35.169C1321.31 34.9669 1321.31 34.8911 1321.42 34.8911H1321.47L1321.52 34.9416L1321.57 34.9164Z"
            fill="#304428" />
        <path
            d="M1324.03 32.9458C1324.03 32.9458 1324.2 33.0216 1324.38 33.0722C1324.48 33.0974 1324.53 33.1227 1324.56 33.148C1324.61 33.1733 1324.63 33.2491 1324.63 33.3502C1324.69 33.8556 1324.66 34.5379 1324.56 35.3719C1324.56 35.473 1324.56 35.5741 1324.56 35.6246C1324.56 35.7257 1324.61 35.8015 1324.69 35.8773L1324.74 35.9532L1324.69 36.0037C1324.69 36.0037 1324.53 35.9279 1324.38 35.8268C1324.28 35.7763 1324.2 35.7004 1324.2 35.6499C1324.2 35.6246 1324.2 35.5741 1324.2 35.5235C1324.3 34.7148 1324.36 34.0578 1324.3 33.5776C1324.3 33.4007 1324.25 33.2743 1324.2 33.1985C1324.2 33.148 1324.13 33.0974 1324.05 33.0469C1324 33.0216 1323.98 32.9711 1324 32.9205C1324 32.87 1324.03 32.87 1324.08 32.8953L1324.03 32.9458Z"
            fill="#304428" />
        <path
            d="M1318.48 24.2559C1318.65 24.2811 1318.88 24.458 1319.16 24.7611C1319.29 24.9127 1319.36 25.039 1319.41 25.14C1319.41 25.1906 1319.44 25.3421 1319.46 25.5948C1320.35 26.7315 1321.52 27.641 1322.56 28.6009C1322.4 27.7925 1322.3 27.1863 1322.28 26.8073C1322.28 26.6558 1322.3 26.6052 1322.4 26.6052C1322.48 26.6052 1322.56 26.7315 1322.61 26.9084C1322.81 27.6662 1323.01 28.4241 1323.21 29.1567C1323.82 29.6872 1324.43 30.2177 1325.07 30.6977C1324.99 29.7882 1325.01 28.8535 1325.07 27.9441C1325.07 27.8683 1325.07 27.7925 1325.07 27.742C1325.07 27.641 1325.01 27.5652 1324.91 27.4894C1324.79 27.3884 1324.68 27.3126 1324.68 27.2368C1324.68 27.161 1324.68 27.1105 1324.76 27.0852C1324.94 27.0852 1325.14 27.0852 1325.32 27.06C1325.37 27.06 1325.42 27.06 1325.47 27.06C1325.57 27.06 1325.67 27.1357 1325.75 27.262C1325.83 27.3631 1325.9 27.4641 1325.98 27.5905C1326.03 27.6662 1326.03 27.7673 1325.98 27.9441C1325.65 29.0051 1325.34 30.5208 1325.65 31.2029C1325.7 31.3039 1325.83 31.4303 1325.88 31.506C1325.9 31.5818 1325.93 31.7081 1325.93 31.885C1325.93 32.0365 1325.88 32.1629 1325.77 32.2386C1325.67 32.3144 1325.6 32.3649 1325.57 32.3397C1325.52 32.3397 1325.47 32.2892 1325.39 32.1881C1325.27 32.0618 1325.19 31.9355 1325.17 31.7839C1325.17 31.7334 1325.14 31.5818 1325.12 31.3292C1324.86 31.1019 1324.53 30.7987 1324.08 30.4198C1323.9 30.3693 1323.72 30.344 1323.52 30.344C1323.32 30.344 1323.21 30.344 1323.19 30.344C1323.11 30.344 1323.06 30.2935 1323.04 30.2429C1322.94 30.1419 1322.83 29.7882 1322.68 29.1819C1321.57 28.1967 1320.4 27.2115 1319.39 26.1253C1319.39 26.1253 1319.39 26.5042 1319.39 27.262C1319.39 27.7673 1319.44 28.1462 1319.54 28.4494C1319.67 28.8283 1319.89 29.1567 1320.22 29.4093C1320.65 29.7377 1321.21 30.0661 1321.87 30.445C1322 30.5208 1322.07 30.5966 1322.1 30.7229C1322.1 30.824 1322.1 30.8492 1322 30.824H1321.92C1321.11 30.4198 1320.3 29.9903 1319.57 29.4851C1319.24 29.2577 1318.98 28.9041 1318.83 28.4746C1318.73 28.1967 1318.65 27.6662 1318.68 26.9336C1318.68 26.1505 1318.68 25.62 1318.63 25.3421C1318.4 25.0895 1318.25 24.8874 1318.2 24.7106C1318.17 24.6348 1318.15 24.5338 1318.15 24.4075C1318.15 24.2054 1318.2 24.1296 1318.3 24.1548H1318.37L1318.48 24.2054V24.2559Z"
            fill="#304428" />
        <path
            d="M1322.48 22.639C1322.48 22.639 1322.73 22.7149 1323.01 22.8159C1323.16 22.8665 1323.27 22.8918 1323.29 22.917C1323.34 22.9423 1323.37 23.0181 1323.39 23.1192C1323.42 23.6246 1323.39 24.307 1323.27 25.1157C1323.27 25.2168 1323.27 25.3179 1323.27 25.3684C1323.27 25.4695 1323.34 25.5706 1323.47 25.6464C1323.52 25.6717 1323.54 25.6969 1323.54 25.7475C1323.54 25.798 1323.54 25.8233 1323.47 25.798H1323.42C1323.42 25.798 1323.19 25.6969 1322.94 25.5706C1322.76 25.4948 1322.66 25.4189 1322.66 25.3684C1322.66 25.3431 1322.66 25.2926 1322.66 25.242C1322.78 24.4333 1322.86 23.8015 1322.84 23.3214C1322.84 23.1445 1322.78 23.0181 1322.71 22.9423C1322.68 22.8918 1322.61 22.8412 1322.48 22.7654C1322.4 22.7149 1322.38 22.6896 1322.4 22.639C1322.43 22.5885 1322.45 22.5885 1322.53 22.6138L1322.48 22.639Z"
            fill="#304428" />
        <path
            d="M1316.98 13.9742C1317.21 14.0247 1317.46 14.2016 1317.72 14.5047C1317.84 14.6563 1317.89 14.7573 1317.89 14.8836C1317.89 14.9342 1317.84 15.0605 1317.74 15.2878C1318.63 16.5257 1320 17.4351 1321.19 18.3698C1321.24 17.6119 1321.31 17.0309 1321.42 16.6772C1321.44 16.5509 1321.54 16.4751 1321.69 16.5257C1321.82 16.5509 1321.87 16.652 1321.87 16.8288C1321.87 17.5361 1321.9 18.2687 1322 18.9761C1322.78 19.5571 1323.57 20.1128 1324.38 20.6433C1324.43 19.7087 1324.79 18.9003 1325.14 18.0414C1325.17 17.9656 1325.19 17.8898 1325.22 17.8393C1325.22 17.7635 1325.19 17.6624 1325.09 17.6119C1324.91 17.5109 1324.81 17.4351 1324.84 17.3593C1324.84 17.2835 1324.91 17.233 1324.99 17.233C1325.27 17.233 1325.55 17.233 1325.83 17.2583C1325.9 17.2583 1325.98 17.2583 1326.03 17.2583C1326.18 17.2835 1326.28 17.3593 1326.38 17.4603C1326.46 17.5614 1326.56 17.6624 1326.61 17.7888C1326.66 17.8645 1326.61 17.9656 1326.48 18.1172C1325.78 19.0518 1324.91 20.5423 1325.17 21.1486C1325.22 21.2496 1325.42 21.3759 1325.45 21.4517C1325.47 21.5275 1325.5 21.6538 1325.47 21.8054C1325.47 21.957 1325.37 22.058 1325.19 22.1338C1325.01 22.2096 1324.91 22.2348 1324.89 22.2096C1324.84 22.2096 1324.74 22.1338 1324.63 22.058C1324.48 21.9317 1324.38 21.7801 1324.36 21.6538C1324.36 21.6033 1324.36 21.4517 1324.36 21.2244C1324 20.997 1323.57 20.6686 1322.99 20.2392C1322.73 20.1886 1322.45 20.1381 1322.18 20.1128C1321.9 20.0876 1321.72 20.0623 1321.69 20.0623C1321.59 20.0623 1321.52 20.0118 1321.47 19.9613C1321.37 19.8602 1321.26 19.5066 1321.24 18.9255C1319.95 17.9403 1318.58 16.9551 1317.44 15.7678C1317.44 15.7678 1317.23 16.1215 1316.93 16.8035C1316.73 17.2583 1316.68 17.6372 1316.7 17.8898C1316.75 18.2687 1317.01 18.5971 1317.44 18.8498C1318.15 19.2792 1318.91 19.6329 1319.64 20.0118C1319.82 20.0876 1319.9 20.1886 1319.92 20.2897C1319.92 20.3907 1319.87 20.416 1319.72 20.3907C1319.69 20.3907 1319.64 20.3907 1319.59 20.3655C1318.5 19.936 1317.39 19.456 1316.37 18.875C1315.94 18.6224 1315.66 18.2687 1315.59 17.8393C1315.54 17.5614 1315.64 17.0814 1315.97 16.3993C1316.32 15.692 1316.57 15.212 1316.63 14.9594C1316.4 14.7068 1316.3 14.5047 1316.3 14.3531C1316.3 14.2774 1316.32 14.1763 1316.37 14.1005C1316.47 13.9237 1316.6 13.8479 1316.75 13.8984C1316.78 13.8984 1316.83 13.8984 1316.88 13.9237C1316.93 13.9489 1316.98 13.9489 1317.01 13.9489L1316.98 13.9742Z"
            fill="#304428" />
    </g>
    <defs>
        <filter id="filter0_d_325_42" x="1302.79" y="13.8831" width="90.0127" height="134.177"
            filterUnits="userSpaceOnUse" color-interpolation-filters="sRGB">
            <feFlood flood-opacity="0" result="BackgroundImageFix" />
            <feColorMatrix in="SourceAlpha" type="matrix"
                values="0 0 0 0 0 0 0 0 0 0 0 0 0 0 0 0 0 0 127 0" result="hardAlpha" />
            <feOffset dx="1" dy="1" />
            <feColorMatrix type="matrix"
                values="0 0 0 0 0.360784 0 0 0 0 0.360784 0 0 0 0 0.360784 0 0 0 0.36 0" />
            <feBlend mode="normal" in2="BackgroundImageFix" result="effect1_dropShadow_325_42" />
            <feBlend mode="normal" in="SourceGraphic" in2="effect1_dropShadow_325_42" result="shape" />
        </filter>
    </defs>
</svg>
