<svg xmlns="http://www.w3.org/2000/svg" fill="none" height="36" viewBox="0 0 486 98">
  <path fill="#000"
    d="M20 15.2c0 2.933.533 3.467 4.133 3.467 3.467 0 4-.4 3.6-3.067-.266-2.133-1.466-3.067-4-3.333-3.2-.4-3.733 0-3.733 2.933ZM40 25.333v13.334h8V12h-8v13.333ZM60.533 14c-1.066 2.8.534 4.667 4.267 4.667 2.533 0 3.2-.667 3.2-3.334C68 12.667 67.333 12 64.667 12c-1.867 0-3.734.933-4.134 2ZM216.533 16.4c-.266.933-.4 13.333-.266 27.6l.4 26 127.733.4 127.6.267v-56H344.667c-102.267 0-127.6.4-128.134 1.733Zm32.934 13.333c12 8 11.733 24-.534 31.734-3.2 2-5.866 2.533-11.333 2.133-18.533-1.333-23.867-24.533-7.867-34.267 5.867-3.6 14-3.466 19.734.4Zm65.6-1.733c3.466 0 6.266.533 6.266 1.333 0 .8-3.866 1.334-8.8 1.334h-8.666l.4 5.6.4 5.733 8.4.4c4.533.267 8.266.933 8.266 1.6s-3.733 1.333-8.266 1.6l-8.4.4-.4 6.933-.4 7.067h8.666c7.067 0 8.8.4 8.8 2 0 1.733-1.733 2-10.266 1.733l-10.4-.4-.4-17.2c-.4-18.266.266-20.266 5.733-18.8 1.467.267 5.467.667 9.067.667Zm32.666 3.467c1.6 1.866 2.934 4.4 2.934 5.6 0 3.866-3.867 8.133-8.267 9.333l-4 1.067L343.6 54c7.067 9.067 7.6 10 5.2 10-1.067 0-5.067-4-9.067-8.933l-7.066-8.934-.667 8.534c-.4 5.066-1.333 8.666-2.267 9.066C328.4 64.133 328 60 328 46.267c0-9.734.267-18.134.533-18.4.4-.4 4.134-.4 8.4-.267 6.4.4 8.267 1.067 10.8 3.867Zm24.4-2c1.867 1.866 2.4 3.2 1.467 4.133-.933.933-2.133.667-3.733-.8-2.667-2.8-7.067-2.267-9.067.933-1.2 2-.267 3.467 6.4 9.467 6.667 5.867 7.867 7.733 7.867 11.467 0 8.666-11.467 12.666-17.6 6.133-4.4-4.667-2.267-7.067 2.666-2.933 5.067 4.4 9.734 3.066 10.267-2.8.4-3.467-.667-4.934-6.267-9.6-3.6-3.067-7.066-6.8-7.466-8.134-.8-2.666 1.333-7.866 3.866-9.6 2.8-2 8.8-1.066 11.6 1.734ZM401.067 28c1.6 0 2.933.533 2.933 1.333 0 .8-3.733 1.334-8.667 1.334h-8.666v12h8.666c4.934 0 8.667.533 8.667 1.333 0 .8-3.733 1.333-8.667 1.333h-8.666V60h8.8c6.4 0 8.666.4 8.266 1.6-.4 1.2-3.733 1.733-10.533 1.733h-9.867l-.4-16.533c-.133-9.2-.133-17.333.267-18.133.4-1.067 3.2-1.467 7.733-1.2 3.867.266 8.4.4 10.134.533Zm60.133 1.867c2.4 2.533 2.533 3.2.933 3.866-1.066.4-2.666-.133-3.6-1.2-2.266-2.8-8.4-1.866-8.933 1.334-.4 1.733 1.867 4.8 6.933 9.333 6 5.6 7.467 7.733 7.467 11.2 0 5.733-4 9.6-10 9.6-6.4 0-12.667-6.267-8.8-8.667.8-.4 2 .534 2.8 2 1.6 3.067 7.867 3.6 10.4 1.067 3.067-3.067 1.6-6.533-5.733-13.6-8-7.6-8.934-11.2-4.667-15.467 3.6-3.6 9.467-3.466 13.2.534Zm-188.667 11.2c2.8 6.666 5.6 12.266 6 12.266.534 0 3.2-5.6 6.134-12.266 3.333-7.734 6.133-12.534 7.6-12.8 1.733-.4.666 3.333-5.334 16.933-4.133 9.6-7.866 17.467-8.4 17.467-.4 0-2-2.8-3.6-6.4-1.466-3.467-4.8-11.2-7.466-17.334-4-9.2-4.4-11.066-2.534-10.666 1.467.266 4.267 4.933 7.6 12.8Zm160 3.2C442.4 65.067 442 64 439.733 64c-1.066 0-3.2-2.667-4.8-6L432 52h-16.133l-2.534 6c-1.6 3.6-3.466 6-4.666 6-1.2 0-2-.533-1.734-1.067C409.6 56.133 423.333 28 424 28c.533 0 4.4 7.333 8.533 16.267Z" />
  <path fill="#000"
    d="M229.2 34.4c-8.533 7.6-6 20.533 4.8 25.067 8.133 3.333 18.533-2.267 20.133-11.067C256.8 34.267 240 24.8 229.2 34.4ZM332 36.667v6h6c5.2 0 6.267-.534 7.6-3.467 1.467-3.067 1.333-3.867-1.467-6-1.733-1.467-5.066-2.533-7.6-2.533-4.533 0-4.533.133-4.533 6ZM421.6 40.933c-1.6 3.067-2.933 6-2.933 6.4 0 .4 2.4.667 5.333.667 6 0 6 0 2.8-7.333l-2.4-5.334-2.8 5.6ZM9.6 26.267 10 30l13.067.4L36 30.8v-8.133H9.2l.4 3.6ZM52 26.667V30.8l13.067-.4L78 30l.4-3.733.4-3.6H52v4ZM115.733 40.267l-.4 13.733L104 40.933C97.867 33.867 92.267 28 91.733 28c-.533 0-1.066 7.733-1.066 17.333 0 14.4.4 17.334 2 17.334 1.466 0 2-2.667 2.266-13.334l.4-13.333 11.334 13.333c6.266 7.334 11.733 13.334 12.4 13.334.533 0 .933-8.134.933-18 0-14.934-.4-18-2-18-1.467 0-2 2.666-2.267 13.6ZM128 44.667c0 15.066.267 18 2 18s2-2.934 2-18c0-15.067-.267-18-2-18s-2 2.933-2 18ZM138.933 29.6c9.467 14.533 10.4 16.667 10.4 24.933 0 4.534.534 8.134 1.334 8.134s1.333-3.6 1.333-8c0-6.934.667-9.067 5.467-16.934 3.066-5.066 5.733-9.466 6.133-10.133.267-.533-.4-.933-1.467-.933-1.066 0-4 3.333-6.4 7.333-2.4 4-4.666 7.333-5.066 7.333-.4 0-2.667-3.333-5.067-7.333-2.4-4-5.333-7.333-6.533-7.333-1.867 0-1.867.4-.134 2.933ZM176.8 42.8c-9.733 20.8-9.467 19.867-7.2 19.867 1.067 0 3.067-2.534 4.667-5.734l2.8-5.733 7.6-.133h7.6l2.8 5.733c1.466 3.2 3.6 5.867 4.533 5.867.933 0 1.733-.267 1.733-.534 0-.266-3.733-8.4-8.4-18.133l-8.4-17.733L176.8 42.8Zm13.867 4.133c0 .667-2.667 1.067-6 1.067-3.334 0-6-.267-6-.667 0-.266 1.333-3.333 2.933-6.666l2.933-6.134 3.067 5.734c1.6 3.2 2.933 6.133 3.067 6.666ZM20 46.667v12h8v-24h-8v12ZM60 46.667v12h8v-24h-8v12ZM9.867 44.667c-1.2 3.066.4 6 3.466 6 2.134 0 2.667-.934 2.667-4 0-3.067-.533-4-2.667-4-1.466 0-3.066.933-3.466 2ZM32 46.667v4h24v-8H32v4ZM72 46.667c0 3.333.533 4 3.333 4 2.8 0 3.334-.667 3.334-4 0-3.334-.534-4-3.334-4s-3.333.666-3.333 4ZM40 67.333V80h8V54.667h-8v12.666ZM10.267 63.6c-.534.4-.934 2.267-.934 4 0 3.067.267 3.067 13.334 3.067H36v-8H23.6c-6.933 0-12.933.4-13.333.933ZM52 66.667v4h26.8l-.4-3.734-.4-3.6-12.933-.4-13.067-.4v4.134ZM20 77.333c0 2.134.933 2.667 4 2.667s4-.533 4-2.667c0-2.133-.933-2.666-4-2.666s-4 .533-4 2.666ZM60.933 75.6C58.667 77.733 60.267 80 64 80c3.067 0 4-.533 4-2.667 0-1.866-.933-2.666-3.067-2.666-1.733 0-3.6.4-4 .933Z" />
</svg>
