<?xml version="1.0" encoding="UTF-8"?>
<svg xmlns="http://www.w3.org/2000/svg" xmlns:xlink="http://www.w3.org/1999/xlink" width="140px" height="32px" viewBox="0 0 139 32" version="1.1">
<defs>
<filter id="alpha" filterUnits="objectBoundingBox" x="0%" y="0%" width="100%" height="100%">
  <feColorMatrix type="matrix" in="SourceGraphic" values="0 0 0 0 1 0 0 0 0 1 0 0 0 0 1 0 0 0 1 0"/>
</filter>
<mask id="mask0">
  <g filter="url(#alpha)">
<rect x="0" y="0" width="139" height="32" style="fill:rgb(0%,0%,0%);fill-opacity:0.988235;stroke:none;"/>
  </g>
</mask>
<clipPath id="clip1">
  <rect x="0" y="0" width="139" height="32"/>
</clipPath>
<g id="surface5" clip-path="url(#clip1)">
<path style=" stroke:none;fill-rule:evenodd;fill:rgb(10.980392%,18.431373%,54.117647%);fill-opacity:1;" d="M 48.207031 -0.015625 C 48.324219 -0.015625 48.445312 -0.015625 48.5625 -0.015625 C 47.707031 1.234375 46.835938 2.472656 45.9375 3.695312 C 43.566406 3.988281 41.464844 4.886719 39.625 6.386719 C 40.625 5.867188 41.671875 5.445312 42.765625 5.121094 C 43.789062 4.828125 44.832031 4.691406 45.890625 4.71875 C 46.207031 5.347656 46.503906 5.984375 46.78125 6.628906 C 43.660156 6.15625 40.789062 6.789062 38.167969 8.527344 C 36.679688 9.574219 35.53125 10.90625 34.71875 12.53125 C 34.550781 12.261719 34.398438 11.980469 34.265625 11.6875 C 34.003906 11.109375 33.734375 10.539062 33.453125 9.96875 C 32.910156 9.921875 32.363281 9.867188 31.820312 9.808594 C 31.714844 9.566406 31.601562 9.328125 31.480469 9.09375 C 31.464844 9.972656 31.492188 10.847656 31.558594 11.71875 C 31.996094 12.015625 32.128906 12.417969 31.964844 12.921875 C 31.921875 13.015625 31.871094 13.105469 31.820312 13.195312 C 31.9375 14.085938 32.039062 14.976562 32.125 15.871094 C 31.847656 15.683594 31.570312 15.488281 31.300781 15.285156 C 31.023438 15.480469 30.75 15.683594 30.492188 15.902344 C 30.5 15.039062 30.542969 14.171875 30.621094 13.308594 C 30.585938 13.179688 30.527344 13.0625 30.441406 12.953125 C 30.269531 12.453125 30.390625 12.042969 30.800781 11.71875 C 30.808594 11.070312 30.789062 10.421875 30.734375 9.773438 C 29.984375 9.726562 29.234375 9.679688 28.484375 9.628906 C 28.4375 9.621094 28.394531 9.605469 28.355469 9.582031 C 31.066406 6.621094 33.796875 3.675781 36.546875 0.746094 C 40.4375 0.492188 44.324219 0.238281 48.207031 -0.015625 Z M 48.207031 -0.015625 "/>
</g>
<mask id="mask1">
  <g filter="url(#alpha)">
<rect x="0" y="0" width="139" height="32" style="fill:rgb(0%,0%,0%);fill-opacity:0.992157;stroke:none;"/>
  </g>
</mask>
<clipPath id="clip2">
  <rect x="0" y="0" width="139" height="32"/>
</clipPath>
<g id="surface8" clip-path="url(#clip2)">
<path style=" stroke:none;fill-rule:evenodd;fill:rgb(66.666667%,38.431373%,97.647059%);fill-opacity:1;" d="M 44.320312 7.34375 C 48.414062 7.269531 51.601562 8.914062 53.890625 12.273438 C 55.722656 15.332031 56.035156 18.539062 54.828125 21.902344 C 54.464844 22.824219 53.984375 23.679688 53.386719 24.460938 C 53.371094 24.496094 53.351562 24.5 53.324219 24.476562 C 51.574219 22.25 49.824219 20.023438 48.078125 17.800781 C 49.390625 15.878906 50.730469 13.980469 52.09375 12.09375 C 50.6875 12.070312 49.285156 12.070312 47.882812 12.09375 C 46.589844 13.851562 45.3125 15.617188 44.042969 17.394531 C 44.027344 15.621094 44.023438 13.847656 44.027344 12.078125 C 42.765625 12.078125 41.503906 12.078125 40.238281 12.078125 C 40.238281 16.042969 40.238281 20.007812 40.238281 23.976562 C 41.503906 23.976562 42.765625 23.976562 44.027344 23.976562 C 44.023438 22.160156 44.027344 20.34375 44.042969 18.527344 C 46.226562 21.339844 48.40625 24.148438 50.585938 26.957031 C 50.609375 26.996094 50.605469 27.027344 50.570312 27.054688 C 47.816406 28.710938 44.894531 29.105469 41.792969 28.238281 C 38.109375 27.003906 35.707031 24.523438 34.589844 20.796875 C 33.714844 17.117188 34.480469 13.832031 36.886719 10.941406 C 38.886719 8.761719 41.363281 7.5625 44.320312 7.34375 Z M 44.320312 7.34375 "/>
</g>
<mask id="mask2">
  <g filter="url(#alpha)">
<rect x="0" y="0" width="139" height="32" style="fill:rgb(0%,0%,0%);fill-opacity:0.992157;stroke:none;"/>
  </g>
</mask>
<clipPath id="clip3">
  <rect x="0" y="0" width="139" height="32"/>
</clipPath>
<g id="surface11" clip-path="url(#clip3)">
<path style=" stroke:none;fill-rule:evenodd;fill:rgb(10.980392%,18.431373%,54.117647%);fill-opacity:1;" d="M -0.015625 22.582031 C -0.015625 20.386719 -0.015625 18.195312 -0.015625 16 C 0.152344 14.585938 0.863281 13.542969 2.121094 12.871094 C 3.164062 12.367188 4.265625 12.085938 5.425781 12.027344 C 6.746094 11.925781 8.050781 12.023438 9.34375 12.320312 C 10.398438 12.570312 11.300781 13.082031 12.046875 13.859375 C 12.515625 14.421875 12.796875 15.070312 12.890625 15.804688 C 12.925781 16.964844 12.941406 18.128906 12.9375 19.289062 C 12.933594 20.332031 12.925781 21.375 12.921875 22.417969 C 12.800781 23.996094 12.03125 25.125 10.605469 25.808594 C 9.742188 26.195312 8.832031 26.433594 7.886719 26.519531 C 6.570312 26.652344 5.265625 26.597656 3.96875 26.359375 C 2.886719 26.164062 1.9375 25.710938 1.117188 24.996094 C 0.457031 24.324219 0.078125 23.519531 -0.015625 22.582031 Z M 6.167969 15.546875 C 6.726562 15.519531 7.265625 15.601562 7.789062 15.789062 C 8.089844 15.949219 8.277344 16.191406 8.355469 16.519531 C 8.378906 18.367188 8.378906 20.214844 8.355469 22.0625 C 8.246094 22.453125 8.003906 22.714844 7.625 22.855469 C 6.8125 23.101562 6.003906 23.089844 5.199219 22.824219 C 4.816406 22.648438 4.59375 22.351562 4.535156 21.933594 C 4.503906 20.105469 4.511719 18.277344 4.566406 16.453125 C 4.726562 16.019531 5.03125 15.753906 5.488281 15.660156 C 5.71875 15.609375 5.945312 15.570312 6.167969 15.546875 Z M 6.167969 15.546875 "/>
</g>
<mask id="mask3">
  <g filter="url(#alpha)">
<rect x="0" y="0" width="139" height="32" style="fill:rgb(0%,0%,0%);fill-opacity:0.992157;stroke:none;"/>
  </g>
</mask>
<clipPath id="clip4">
  <rect x="0" y="0" width="139" height="32"/>
</clipPath>
<g id="surface14" clip-path="url(#clip4)">
<path style=" stroke:none;fill-rule:evenodd;fill:rgb(10.980392%,18.431373%,54.117647%);fill-opacity:1;" d="M 24.015625 11.980469 C 24.976562 11.945312 25.871094 12.164062 26.703125 12.644531 C 27.757812 13.371094 28.316406 14.382812 28.371094 15.675781 C 28.390625 19.015625 28.390625 22.355469 28.371094 25.695312 C 28.34375 26.109375 28.121094 26.332031 27.707031 26.359375 C 26.648438 26.378906 25.589844 26.378906 24.53125 26.359375 C 24.089844 26.316406 23.859375 26.074219 23.835938 25.628906 C 23.824219 22.625 23.8125 19.621094 23.804688 16.617188 C 23.769531 16.207031 23.546875 15.972656 23.140625 15.917969 C 22.558594 15.863281 21.996094 15.953125 21.457031 16.179688 C 20.933594 16.394531 20.449219 16.671875 20 17.003906 C 19.972656 19.945312 19.957031 22.882812 19.949219 25.824219 C 19.890625 26.175781 19.679688 26.355469 19.316406 26.359375 C 18.25 26.378906 17.179688 26.378906 16.113281 26.359375 C 15.726562 26.339844 15.503906 26.140625 15.449219 25.757812 C 15.425781 21.4375 15.425781 17.113281 15.449219 12.789062 C 15.515625 12.40625 15.75 12.21875 16.144531 12.222656 C 17.203125 12.191406 18.261719 12.203125 19.316406 12.253906 C 19.488281 12.289062 19.609375 12.378906 19.691406 12.53125 C 19.773438 12.84375 19.839844 13.15625 19.886719 13.472656 C 21.09375 12.515625 22.472656 12.015625 24.015625 11.980469 Z M 24.015625 11.980469 "/>
</g>
<mask id="mask4">
  <g filter="url(#alpha)">
<rect x="0" y="0" width="139" height="32" style="fill:rgb(0%,0%,0%);fill-opacity:0.992157;stroke:none;"/>
  </g>
</mask>
<clipPath id="clip5">
  <rect x="0" y="0" width="139" height="32"/>
</clipPath>
<g id="surface17" clip-path="url(#clip5)">
<path style=" stroke:none;fill-rule:evenodd;fill:rgb(10.980392%,18.431373%,54.117647%);fill-opacity:1;" d="M 64.300781 11.980469 C 65.363281 11.964844 66.410156 12.078125 67.445312 12.320312 C 68.386719 12.550781 69.167969 13.03125 69.792969 13.761719 C 70.234375 14.40625 70.472656 15.117188 70.503906 15.902344 C 70.527344 19.175781 70.527344 22.453125 70.503906 25.726562 C 70.460938 26.125 70.242188 26.335938 69.839844 26.359375 C 68.800781 26.390625 67.765625 26.378906 66.730469 26.328125 C 66.554688 26.269531 66.433594 26.15625 66.359375 25.984375 C 66.28125 25.699219 66.226562 25.40625 66.195312 25.109375 C 64.449219 26.550781 62.488281 26.933594 60.320312 26.261719 C 59.054688 25.730469 58.328125 24.785156 58.132812 23.425781 C 58.109375 22.710938 58.109375 21.996094 58.132812 21.285156 C 58.382812 19.933594 59.144531 19 60.414062 18.480469 C 61.09375 18.222656 61.796875 18.089844 62.519531 18.089844 C 63.699219 18.074219 64.875 18.070312 66.050781 18.074219 C 66.054688 17.46875 66.050781 16.863281 66.035156 16.257812 C 65.917969 15.667969 65.558594 15.347656 64.949219 15.304688 C 64.59375 15.28125 64.238281 15.28125 63.882812 15.304688 C 63.511719 15.324219 63.203125 15.472656 62.957031 15.742188 C 62.863281 15.902344 62.808594 16.074219 62.796875 16.257812 C 62.785156 16.484375 62.773438 16.714844 62.765625 16.941406 C 62.71875 17.191406 62.574219 17.347656 62.328125 17.410156 C 61.3125 17.460938 60.296875 17.472656 59.28125 17.441406 C 58.980469 17.457031 58.757812 17.332031 58.617188 17.070312 C 58.28125 14.652344 59.269531 13.082031 61.582031 12.351562 C 62.480469 12.121094 63.386719 11.996094 64.300781 11.980469 Z M 63.199219 21.121094 C 64.152344 21.121094 65.101562 21.121094 66.050781 21.121094 C 66.0625 21.433594 66.050781 21.742188 66.019531 22.046875 C 65.433594 22.480469 64.785156 22.792969 64.074219 22.988281 C 62.722656 23.273438 62.25 22.761719 62.667969 21.445312 C 62.808594 21.273438 62.988281 21.167969 63.199219 21.121094 Z M 63.199219 21.121094 "/>
</g>
<mask id="mask5">
  <g filter="url(#alpha)">
<rect x="0" y="0" width="139" height="32" style="fill:rgb(0%,0%,0%);fill-opacity:0.992157;stroke:none;"/>
  </g>
</mask>
<clipPath id="clip6">
  <rect x="0" y="0" width="139" height="32"/>
</clipPath>
<g id="surface20" clip-path="url(#clip6)">
<path style=" stroke:none;fill-rule:evenodd;fill:rgb(10.980392%,18.431373%,54.117647%);fill-opacity:1;" d="M 81.597656 11.980469 C 82.730469 11.9375 83.746094 12.257812 84.640625 12.9375 C 84.9375 13.199219 85.191406 13.496094 85.402344 13.828125 C 87.136719 12.226562 89.160156 11.679688 91.472656 12.191406 C 93.066406 12.714844 93.957031 13.8125 94.144531 15.480469 C 94.167969 18.917969 94.167969 22.355469 94.144531 25.792969 C 94.074219 26.152344 93.851562 26.34375 93.480469 26.359375 C 92.433594 26.378906 91.386719 26.378906 90.339844 26.359375 C 89.960938 26.347656 89.726562 26.160156 89.644531 25.792969 C 89.632812 22.785156 89.621094 19.78125 89.613281 16.777344 C 89.574219 16.117188 89.222656 15.824219 88.558594 15.902344 C 87.5625 15.972656 86.695312 16.339844 85.953125 17.003906 C 85.941406 19.921875 85.929688 22.839844 85.917969 25.757812 C 85.863281 26.140625 85.640625 26.339844 85.253906 26.359375 C 84.199219 26.378906 83.140625 26.378906 82.082031 26.359375 C 81.726562 26.347656 81.503906 26.167969 81.417969 25.824219 C 81.417969 22.730469 81.394531 19.640625 81.351562 16.550781 C 81.289062 16.175781 81.070312 15.964844 80.6875 15.917969 C 80.117188 15.863281 79.566406 15.949219 79.039062 16.179688 C 78.558594 16.390625 78.121094 16.664062 77.726562 17.003906 C 77.714844 19.914062 77.703125 22.820312 77.695312 25.726562 C 77.65625 26.109375 77.445312 26.320312 77.0625 26.359375 C 75.984375 26.378906 74.902344 26.378906 73.824219 26.359375 C 73.355469 26.304688 73.136719 26.039062 73.160156 25.5625 C 73.136719 21.371094 73.136719 17.179688 73.160156 12.984375 C 73.144531 12.503906 73.375 12.25 73.855469 12.222656 C 74.925781 12.191406 75.996094 12.203125 77.0625 12.253906 C 77.394531 12.394531 77.550781 12.648438 77.53125 13.015625 C 77.542969 13.179688 77.554688 13.339844 77.5625 13.503906 C 78.355469 12.789062 79.277344 12.332031 80.332031 12.125 C 80.757812 12.050781 81.175781 12.003906 81.597656 11.980469 Z M 81.597656 11.980469 "/>
</g>
<mask id="mask6">
  <g filter="url(#alpha)">
<rect x="0" y="0" width="139" height="32" style="fill:rgb(0%,0%,0%);fill-opacity:0.992157;stroke:none;"/>
  </g>
</mask>
<clipPath id="clip7">
  <rect x="0" y="0" width="139" height="32"/>
</clipPath>
<g id="surface23" clip-path="url(#clip7)">
<path style=" stroke:none;fill-rule:evenodd;fill:rgb(10.980392%,18.431373%,54.117647%);fill-opacity:1;" d="M 100.769531 31.984375 C 99.65625 31.984375 98.542969 31.984375 97.433594 31.984375 C 97.101562 31.945312 96.902344 31.761719 96.832031 31.433594 C 96.8125 25.21875 96.8125 19.003906 96.832031 12.789062 C 96.910156 12.414062 97.140625 12.222656 97.53125 12.222656 C 98.589844 12.191406 99.648438 12.203125 100.703125 12.253906 C 100.867188 12.308594 100.992188 12.414062 101.078125 12.5625 C 101.15625 12.871094 101.21875 13.1875 101.253906 13.503906 C 102.996094 12.140625 104.953125 11.703125 107.117188 12.191406 C 108.238281 12.515625 109.011719 13.222656 109.433594 14.3125 C 109.652344 14.945312 109.757812 15.59375 109.753906 16.257812 C 109.777344 18.28125 109.777344 20.300781 109.753906 22.320312 C 109.722656 25.097656 108.324219 26.523438 105.5625 26.601562 C 103.996094 26.601562 102.597656 26.125 101.367188 25.175781 C 101.355469 27.25 101.347656 29.324219 101.335938 31.398438 C 101.289062 31.742188 101.101562 31.9375 100.769531 31.984375 Z M 103.78125 15.902344 C 104.007812 15.898438 104.234375 15.902344 104.460938 15.917969 C 104.875 15.988281 105.121094 16.234375 105.1875 16.648438 C 105.210938 18.410156 105.210938 20.171875 105.1875 21.933594 C 105.128906 22.359375 104.886719 22.601562 104.460938 22.664062 C 103.957031 22.71875 103.472656 22.65625 103.003906 22.46875 C 102.414062 22.230469 101.871094 21.921875 101.367188 21.542969 C 101.347656 20.042969 101.347656 18.539062 101.367188 17.039062 C 102.085938 16.46875 102.890625 16.09375 103.78125 15.902344 Z M 103.78125 15.902344 "/>
</g>
<mask id="mask7">
  <g filter="url(#alpha)">
<rect x="0" y="0" width="139" height="32" style="fill:rgb(0%,0%,0%);fill-opacity:0.992157;stroke:none;"/>
  </g>
</mask>
<clipPath id="clip8">
  <rect x="0" y="0" width="139" height="32"/>
</clipPath>
<g id="surface26" clip-path="url(#clip8)">
<path style=" stroke:none;fill-rule:evenodd;fill:rgb(10.980392%,18.431373%,54.117647%);fill-opacity:1;" d="M 138.984375 20.992188 C 138.984375 21.707031 138.984375 22.417969 138.984375 23.132812 C 138.820312 24.058594 138.367188 24.808594 137.625 25.386719 C 136.722656 25.996094 135.730469 26.363281 134.644531 26.488281 C 133.320312 26.660156 132.003906 26.617188 130.691406 26.359375 C 129.800781 26.183594 129.003906 25.816406 128.296875 25.257812 C 127.261719 24.289062 126.890625 23.105469 127.179688 21.707031 C 127.253906 21.546875 127.378906 21.445312 127.550781 21.398438 C 128.566406 21.347656 129.582031 21.335938 130.597656 21.367188 C 131.003906 21.363281 131.222656 21.5625 131.261719 21.964844 C 131.269531 22.226562 131.28125 22.484375 131.292969 22.742188 C 131.394531 22.976562 131.5625 23.144531 131.792969 23.246094 C 132.613281 23.484375 133.433594 23.484375 134.253906 23.246094 C 134.75 23.03125 134.925781 22.660156 134.789062 22.128906 C 134.746094 21.976562 134.65625 21.863281 134.515625 21.789062 C 134.261719 21.652344 134.003906 21.53125 133.738281 21.429688 C 132.261719 20.875 130.792969 20.304688 129.332031 19.710938 C 127.839844 18.734375 127.238281 17.359375 127.535156 15.578125 C 127.710938 14.316406 128.351562 13.382812 129.460938 12.773438 C 130.15625 12.417969 130.890625 12.191406 131.664062 12.09375 C 132.957031 11.921875 134.242188 11.976562 135.519531 12.253906 C 136.53125 12.488281 137.378906 12.992188 138.0625 13.761719 C 138.765625 14.730469 138.984375 15.800781 138.707031 16.972656 C 138.554688 17.136719 138.367188 17.214844 138.140625 17.214844 C 137.203125 17.238281 136.261719 17.238281 135.324219 17.214844 C 135.039062 17.226562 134.839844 17.101562 134.726562 16.84375 C 134.683594 16.519531 134.664062 16.195312 134.660156 15.871094 C 134.597656 15.570312 134.417969 15.367188 134.125 15.269531 C 133.503906 15.089844 132.878906 15.078125 132.246094 15.238281 C 131.742188 15.410156 131.542969 15.761719 131.648438 16.292969 C 131.734375 16.570312 131.910156 16.773438 132.183594 16.890625 C 133.578125 17.382812 134.96875 17.878906 136.359375 18.382812 C 137.179688 18.664062 137.875 19.125 138.449219 19.761719 C 138.726562 20.132812 138.90625 20.542969 138.984375 20.992188 Z M 138.984375 20.992188 "/>
</g>
<mask id="mask8">
  <g filter="url(#alpha)">
<rect x="0" y="0" width="139" height="32" style="fill:rgb(0%,0%,0%);fill-opacity:0.992157;stroke:none;"/>
  </g>
</mask>
<clipPath id="clip9">
  <rect x="0" y="0" width="139" height="32"/>
</clipPath>
<g id="surface29" clip-path="url(#clip9)">
<path style=" stroke:none;fill-rule:evenodd;fill:rgb(10.980392%,18.431373%,54.117647%);fill-opacity:1;" d="M 112.816406 12.207031 C 113.851562 12.203125 114.890625 12.207031 115.925781 12.222656 C 116.355469 12.242188 116.597656 12.460938 116.652344 12.886719 C 116.664062 15.902344 116.675781 18.917969 116.6875 21.933594 C 116.707031 22.289062 116.886719 22.523438 117.21875 22.628906 C 117.835938 22.742188 118.429688 22.664062 119 22.402344 C 119.476562 22.1875 119.917969 21.921875 120.328125 21.609375 C 120.355469 18.660156 120.371094 15.707031 120.378906 12.757812 C 120.445312 12.390625 120.664062 12.214844 121.042969 12.222656 C 122.089844 12.203125 123.136719 12.203125 124.183594 12.222656 C 124.585938 12.226562 124.820312 12.425781 124.878906 12.824219 C 124.902344 17.144531 124.902344 21.46875 124.878906 25.792969 C 124.820312 26.164062 124.597656 26.355469 124.214844 26.359375 C 123.144531 26.390625 122.078125 26.378906 121.007812 26.328125 C 120.828125 26.292969 120.703125 26.191406 120.636719 26.019531 C 120.558594 25.726562 120.492188 25.433594 120.441406 25.144531 C 119.03125 26.277344 117.414062 26.75 115.601562 26.554688 C 113.742188 26.3125 112.601562 25.28125 112.183594 23.457031 C 112.152344 23.21875 112.128906 22.984375 112.121094 22.742188 C 112.097656 19.5 112.097656 16.257812 112.121094 13.015625 C 112.113281 12.804688 112.167969 12.613281 112.28125 12.433594 C 112.4375 12.300781 112.617188 12.226562 112.816406 12.207031 Z M 112.816406 12.207031 "/>
</g>
</defs>
<g id="surface1">
<use xlink:href="#surface5" mask="url(#mask0)"/>
<use xlink:href="#surface8" mask="url(#mask1)"/>
<use xlink:href="#surface11" mask="url(#mask2)"/>
<use xlink:href="#surface14" mask="url(#mask3)"/>
<use xlink:href="#surface17" mask="url(#mask4)"/>
<use xlink:href="#surface20" mask="url(#mask5)"/>
<use xlink:href="#surface23" mask="url(#mask6)"/>
<use xlink:href="#surface26" mask="url(#mask7)"/>
<use xlink:href="#surface29" mask="url(#mask8)"/>
</g>
</svg>
