<svg xmlns="http://www.w3.org/2000/svg" fill="none" height="36" viewBox="0 0 278 54">
  <path fill="#fff" fill-rule="evenodd"
    d="m.1 36.065-.03.02v-4.32L0 0v46.286h.064V38.8c.117-.046 6.124-2.514 7.042-2.942 6.025-2.833 9.618-5.067 14.984-9.783.637-.573.647-.566 1.157-.154l.193.154c1.385 1.093 3.57 2.614 5.374 3.87.568.396 1.099.765 1.555 1.087.72.564 1.131.749 1.147.963.016.23-.427.494-1.434 1.303-4.76 3.81-10.916 7.46-16.26 10.357v.007a.212.212 0 0 0-.014.362c.04.026.09.039.138.034 5.316-.602 9.012-2.429 13.648-5.084C35.529 34.43 40.887 29.54 51.2 16.49l.486.272L54 18.18V4.751l-.04 3.768-8.42 4.624s2.31 1.353 3.512 2.03c-5.01 5.134-9.604 9.811-12.319 12.091l-.183.154c-.62.525-.633.536-1.518.059-4.554-2.458-8.806-6.044-12.63-9.688a.476.476 0 0 0-.71.057C15.684 25.758.956 35.5.1 36.066Z"
    clip-rule="evenodd" />
  <path fill="#007EFF"
    d="M45.54 13.143s2.31 1.353 3.512 2.03c-5.01 5.134-9.604 9.811-12.319 12.091-.808.673-.737.733-1.7.213-4.555-2.458-8.808-6.044-12.632-9.688a.48.48 0 0 0-.708.057C15.593 25.876.513 35.79.07 36.084v-4.32L0 0h54.05l-.09 8.52-8.42 4.623Z" />
  <path fill="#C1D4E8"
    d="M13.822 43.662a.213.213 0 0 0-.099.248.213.213 0 0 0 .223.148c5.316-.602 9.012-2.429 13.648-5.084C35.529 34.43 40.887 29.54 51.2 16.49l.486.272 2.37 1.452.026 4.88-.032 30.471-23.423.085-30.563-.07V38.8c.117-.046 6.124-2.514 7.042-2.942 6.025-2.833 9.618-5.067 14.984-9.783.709-.638.641-.556 1.35 0 1.822 1.437 5.026 3.615 6.929 4.957 1.499 1.172 1.655.708-.287 2.266-4.76 3.81-10.916 7.46-16.26 10.357v.007Z" />
  <path fill="#0E2446"
    d="M80.247 40.071c-6.5 0-11.313-3.42-12.107-8.922h6.638c.893 2.18 3.523 2.974 5.458 2.974 2.63 0 4.607-.793 4.607-2.28 0-1.488-.893-2.033-5.358-2.727-4.565-.708-10.668-1.933-10.668-7.634 0-4.015 3.523-8.18 10.916-8.18 5.854 0 10.22 3.188 11.064 7.982h-6.78c-.396-1.19-1.835-2.125-4.252-2.125-3.027 0-4.253 1.09-4.253 2.033 0 1.338 1.885 1.77 5.06 2.28 6.352 1.041 10.916 2.43 10.916 7.981-.028 5.05-4.692 8.618-11.241 8.618Zm20.888-10.806c.843 3.123 3.324 5.056 6.4 5.056 2.184 0 4.317-.942 5.409-2.974h6.996c-1.489 5.205-6.004 8.724-12.355 8.724-7.194 0-13.113-5.948-13.113-13.334 0-7.386 5.905-13.434 13.113-13.434 7.542 0 13.793 5.85 12.851 15.962h-19.301Zm12.801-5.354a6.402 6.402 0 0 0-6.401-4.858c-2.976 0-5.358 1.884-6.301 4.858h12.702Zm35.326 2.826c0 7.634-5.805 13.334-12.9 13.334-7.095 0-12.85-5.7-12.85-13.334 0-7.634 5.755-13.434 12.85-13.434s12.9 5.817 12.9 13.434Zm-6.599.05c0-4.413-2.835-7.486-6.301-7.486-3.467 0-6.298 3.073-6.298 7.485 0 4.313 2.835 7.287 6.301 7.287 3.467 0 6.298-2.974 6.298-7.287Zm28.239 10.385c-1.71 1.768-4.529 2.791-7.857 2.791-6.008 0-10.26-2.658-11.045-7.536h1.71c.835 3.861 4.252 5.908 9.289 5.908 2.866 0 5.282-.93 6.655-2.373a4.287 4.287 0 0 0 1.156-3.303c-.093-2.93-2.45-4.418-8.273-5.256-4.113-.605-9.196-1.302-9.286-6.047 0-3.256 3.047-6.513 9.009-6.513 5.281 0 8.735 2.373 9.751 6.699h-1.757c-.969-3.21-3.696-5.07-7.948-5.07-4.252 0-7.348 2.093-7.302 4.884.047 2.791 2.542 3.628 7.81 4.373 4.952.744 9.521 2.046 9.752 6.884a6.337 6.337 0 0 1-1.664 4.559Zm15.826 2.791c-6.556 0-11.871-5.582-11.871-12.467 0-6.977 5.309-12.653 11.871-12.653 5.275 0 9.37 3.164 10.987 8.001h-1.847a9.642 9.642 0 0 0-3.591-4.575 9.533 9.533 0 0 0-5.549-1.658c-5.586 0-10.156 4.884-10.156 10.885 0 5.908 4.57 10.746 10.156 10.746 4.384 0 7.754-2.419 9.185-6.28h1.802c-1.57 4.838-5.724 8.001-10.987 8.001Zm36.129-12.467c0 6.885-5.404 12.467-12.02 12.467-6.615 0-11.979-5.582-11.979-12.467 0-6.977 5.403-12.653 11.979-12.653s12.02 5.676 12.02 12.653Zm-1.771 0c0-6.094-4.565-11.024-10.249-11.024-5.683 0-10.25 4.93-10.25 11.024 0 5.955 4.613 10.839 10.25 10.839s10.249-4.884 10.249-10.839Zm24.628 11.921h-1.757V35.55c-1.663 2.73-4.704 4.413-8.552 4.413-5.938 0-10.262-4.14-10.262-9.828v-14.15h1.759v14.15c0 4.732 3.61 8.145 8.503 8.145 4.989 0 8.552-3.413 8.552-8.145v-14.15h1.757v23.432Zm24.001-9.107c0 5.592-4.081 9.653-9.715 9.653-5.634 0-9.714-4.054-9.714-9.652V10.276h1.735v5.126h16.849v1.724h-16.835V30.31c0 4.614 3.376 7.922 7.971 7.922 4.597 0 7.973-3.308 7.973-7.921v-2.936h1.736v2.936Z" />
</svg>
