<svg width="175" height="59" viewBox="0 0 175 59" fill="none" xmlns="http://www.w3.org/2000/svg">
    <path
        d="M57.1407 27.62C57.0007 27.74 56.9807 27.94 57.1007 28.08C58.2007 28.04 59.5607 28 60.4207 28C60.9207 28 62.2407 28.06 63.0207 28.08C63.2007 27.92 63.1207 27.72 62.9607 27.62C61.4607 27.7 61.1407 27.68 61.0607 27.62C60.9807 27.56 60.9807 27.44 60.9807 26.6C61.0007 24.54 61.1007 19.84 61.1407 15.58C61.1407 15.52 61.1607 15.48 61.2607 15.48C63.3207 15.46 64.0007 15.52 64.5407 16C65.1007 16.5 65.3407 17.44 65.2807 19.04C65.4207 19.2 65.6407 19.16 65.6807 19C65.6807 17.32 65.7007 16.66 65.7807 15.24C65.7807 15.14 65.7407 15.06 65.6607 15.02C64.4207 15.06 62.0607 15.1 60.5807 15.1C58.3807 15.1 56.3407 15.06 55.2007 15.02C55.0007 15 54.9607 15.04 54.9207 15.1C54.8607 16.44 54.7807 17.7 54.7207 19C54.8207 19.18 55.0807 19.16 55.1407 18.96C55.0407 17.5 55.3807 16.5 56.1607 15.98C56.7207 15.58 57.6007 15.48 59.0607 15.48C59.1407 15.48 59.1807 15.5 59.1807 15.58C59.1207 18.32 59.1207 21.4 59.0807 23.32C59.0007 27.08 59.0007 27.54 58.9207 27.62C58.8407 27.7 58.6407 27.7 57.1407 27.62ZM66.6724 27.62C66.4724 27.74 66.4724 28 66.6124 28.08C67.4524 28.04 68.4724 28 70.2524 28C72.1924 28 74.6124 28.04 76.6724 28.04C76.8124 28.02 76.8524 27.98 76.8924 27.84C76.9124 26.58 76.9724 25.12 77.0124 23.92C76.9524 23.82 76.6924 23.82 76.6124 23.9C76.5924 25.04 76.4124 26.08 75.8324 26.7C75.2724 27.32 74.2324 27.6 72.4724 27.6C71.9324 27.6 70.7124 27.58 70.4524 27.56C70.3324 27.54 70.3324 27.52 70.3324 27.5C70.3524 26.28 70.3924 24.98 70.3924 24.14C70.3924 23.54 70.4124 22.52 70.4124 21.58C70.4124 21.52 70.4524 21.5 70.5124 21.5C71.6524 21.5 72.2524 21.52 72.7524 21.98C73.2524 22.44 73.4324 23.22 73.4124 24.46C73.5924 24.54 73.7324 24.52 73.8324 24.42C73.8124 23.8 73.7724 22.68 73.7724 21.7C73.7724 20.5 73.8324 19.16 73.8924 18.48C73.8324 18.38 73.5924 18.36 73.4924 18.44C73.4924 19.18 73.3724 19.82 72.9924 20.4C72.6124 20.96 72.1124 21.18 70.5324 21.08C70.4124 21.06 70.3924 21.04 70.3924 21C70.4124 20.22 70.4524 19.16 70.4524 18.04C70.4524 17.26 70.4724 16.44 70.4724 15.62C70.4724 15.56 70.5124 15.5 70.5924 15.5C71.2724 15.5 72.4324 15.5 72.4324 15.5C74.2324 15.5 74.9124 15.6 75.3324 16C75.8124 16.48 76.1124 17.66 75.9524 18.58C76.0924 18.66 76.2924 18.66 76.3724 18.56C76.3724 17.46 76.3324 16.3 76.4524 15.22C76.4524 15.16 76.4324 15.12 76.3724 15.08C75.1324 15.08 73.7124 15.1 72.7524 15.1C71.3924 15.1 69.2524 15.06 66.9924 15.02C66.7324 15.12 66.7124 15.34 66.9324 15.48C67.5924 15.44 67.9124 15.44 68.4924 15.5C68.5324 15.5 68.5924 15.52 68.5924 15.58C68.5524 17.78 68.5324 20.12 68.5124 21.58C68.4924 23.02 68.4724 25.38 68.4524 27.54C68.4524 27.6 68.4524 27.66 68.3924 27.66C67.5524 27.7 67.2524 27.68 66.6724 27.62ZM78.101 27.62C77.941 27.72 77.921 27.92 78.081 28.08C78.541 28.04 79.301 28 79.941 28C80.581 28 81.541 28.04 82.021 28.08C82.161 27.96 82.161 27.74 82.001 27.62C80.661 27.66 80.461 27.6 80.461 27.48C80.461 27.34 80.641 26.9 80.841 26.52C81.141 25.9 82.061 24.32 83.221 22.2C83.481 22.68 83.721 23.12 83.941 23.52C84.421 24.36 85.961 27.1 85.961 27.48C85.961 27.62 85.801 27.68 85.241 27.68C84.881 27.68 84.261 27.66 84.001 27.62C83.841 27.74 83.761 27.96 83.921 28.08C84.741 28.02 86.181 28 86.961 28C88.241 28 89.441 28.04 90.041 28.08C90.241 27.98 90.201 27.66 90.021 27.62C89.461 27.62 88.741 27.6 88.421 27.48C88.201 27.4 88.041 27.18 87.601 26.34C87.141 25.52 86.521 24.32 85.441 22.3C85.101 21.68 84.721 21 84.361 20.36C85.321 18.9 86.141 17.4 86.741 16.48C87.041 16.02 87.241 15.76 87.521 15.62C87.821 15.5 88.201 15.48 88.881 15.48C89.041 15.34 89.061 15.1 88.881 15.02C88.421 15.06 87.721 15.1 87.061 15.1C86.361 15.1 85.521 15.06 85.001 15.02C84.841 15.14 84.801 15.38 84.981 15.48C86.341 15.42 86.601 15.52 86.601 15.66C86.601 15.86 85.981 16.92 85.361 17.96C84.861 18.8 84.461 19.44 84.141 19.94C83.121 18.08 82.181 16.46 82.041 16.2C81.821 15.82 81.781 15.74 81.781 15.68C81.781 15.5 82.301 15.48 83.281 15.48C83.561 15.38 83.501 15.1 83.301 15.02C82.421 15.06 81.361 15.1 80.621 15.1C80.021 15.1 78.921 15.06 78.081 15.02C77.881 15.06 77.781 15.34 78.021 15.48C78.801 15.38 79.221 15.4 79.441 15.54C79.621 15.66 79.861 16.08 80.201 16.68C81.021 18.08 82.061 20.06 82.981 21.76C82.361 22.86 81.601 24.18 81.481 24.36C80.341 26.38 79.841 27.42 79.521 27.56C79.341 27.64 78.761 27.66 78.101 27.62ZM97.5313 27.62C97.3913 27.74 97.3713 27.94 97.4913 28.08C98.5913 28.04 99.9513 28 100.811 28C101.311 28 102.631 28.06 103.411 28.08C103.591 27.92 103.511 27.72 103.351 27.62C101.851 27.7 101.531 27.68 101.451 27.62C101.371 27.56 101.371 27.44 101.371 26.6C101.391 24.54 101.491 19.84 101.531 15.58C101.531 15.52 101.551 15.48 101.651 15.48C103.711 15.46 104.391 15.52 104.931 16C105.491 16.5 105.731 17.44 105.671 19.04C105.811 19.2 106.031 19.16 106.071 19C106.071 17.32 106.091 16.66 106.171 15.24C106.171 15.14 106.131 15.06 106.051 15.02C104.811 15.06 102.451 15.1 100.971 15.1C98.7713 15.1 96.7313 15.06 95.5913 15.02C95.3913 15 95.3513 15.04 95.3113 15.1C95.2513 16.44 95.1713 17.7 95.1113 19C95.2113 19.18 95.4713 19.16 95.5313 18.96C95.4313 17.5 95.7713 16.5 96.5513 15.98C97.1113 15.58 97.9913 15.48 99.4513 15.48C99.5313 15.48 99.5713 15.5 99.5713 15.58C99.5113 18.32 99.5113 21.4 99.4713 23.32C99.3913 27.08 99.3913 27.54 99.3113 27.62C99.2313 27.7 99.0313 27.7 97.5313 27.62ZM107.023 28.08C107.743 28.04 108.663 28 108.663 28C110.363 28 111.843 28.06 112.603 28.08C112.763 27.96 112.763 27.7 112.563 27.58C111.323 27.62 110.923 27.64 110.843 27.52C110.763 27.4 110.723 27.12 110.763 25.5C110.783 24.66 110.823 22.54 110.823 21.44C110.823 21.4 110.823 21.38 110.923 21.38C111.103 21.4 111.383 21.4 111.743 21.46C113.203 21.66 113.783 22.68 114.043 24.14C114.203 24.94 114.163 25.66 114.403 26.42C114.763 27.5 115.503 28.08 116.563 28.08C117.503 28.08 118.323 27.62 118.743 26.68C118.723 26.52 118.583 26.46 118.403 26.56C118.243 27.06 117.883 27.44 117.443 27.44C116.923 27.44 116.563 26.98 116.323 26.2C116.143 25.64 116.023 24.8 115.943 24.36C115.543 22.44 114.443 21.4 112.743 21.28C112.703 21.26 112.723 21.22 112.743 21.2C113.743 21.08 114.603 20.64 115.203 20.08C115.803 19.52 116.083 18.82 116.083 17.98C116.083 16.98 115.603 16.1 114.823 15.6C114.243 15.2 113.463 15.02 112.363 15.02C111.623 15.02 110.443 15.06 109.083 15.06C108.403 15.06 107.583 15.04 107.323 15.02C107.083 15.06 106.983 15.38 107.263 15.48C107.503 15.46 107.703 15.46 107.923 15.46C108.403 15.46 108.843 15.54 108.963 15.64C109.063 15.74 109.023 16.36 108.983 19.94C108.923 24.08 108.823 26.32 108.823 26.82C108.823 27.32 108.763 27.46 108.663 27.52C108.563 27.6 108.183 27.64 107.023 27.58C106.903 27.78 106.883 28 107.023 28.08ZM110.963 15.42C111.183 15.4 111.483 15.36 111.783 15.36C112.563 15.36 113.123 15.58 113.523 15.96C114.003 16.42 114.283 17.14 114.283 18.04C114.283 19.88 113.143 21.04 111.643 21.04C111.443 21.04 111.103 21.02 110.963 21.02C110.883 21.02 110.863 21 110.863 20.9C110.883 19.78 110.903 18.72 110.903 17.74C110.903 16.76 110.923 15.94 110.883 15.52C110.883 15.46 110.883 15.44 110.963 15.42ZM119.27 27.62C119.07 27.74 119.07 28 119.21 28.08C120.05 28.04 121.07 28 122.85 28C124.79 28 127.21 28.04 129.27 28.04C129.41 28.02 129.45 27.98 129.49 27.84C129.51 26.58 129.57 25.12 129.61 23.92C129.55 23.82 129.29 23.82 129.21 23.9C129.19 25.04 129.01 26.08 128.43 26.7C127.87 27.32 126.83 27.6 125.07 27.6C124.53 27.6 123.31 27.58 123.05 27.56C122.93 27.54 122.93 27.52 122.93 27.5C122.95 26.28 122.99 24.98 122.99 24.14C122.99 23.54 123.01 22.52 123.01 21.58C123.01 21.52 123.05 21.5 123.11 21.5C124.25 21.5 124.85 21.52 125.35 21.98C125.85 22.44 126.03 23.22 126.01 24.46C126.19 24.54 126.33 24.52 126.43 24.42C126.41 23.8 126.37 22.68 126.37 21.7C126.37 20.5 126.43 19.16 126.49 18.48C126.43 18.38 126.19 18.36 126.09 18.44C126.09 19.18 125.97 19.82 125.59 20.4C125.21 20.96 124.71 21.18 123.13 21.08C123.01 21.06 122.99 21.04 122.99 21C123.01 20.22 123.05 19.16 123.05 18.04C123.05 17.26 123.07 16.44 123.07 15.62C123.07 15.56 123.11 15.5 123.19 15.5C123.87 15.5 125.03 15.5 125.03 15.5C126.83 15.5 127.51 15.6 127.93 16C128.41 16.48 128.71 17.66 128.55 18.58C128.69 18.66 128.89 18.66 128.97 18.56C128.97 17.46 128.93 16.3 129.05 15.22C129.05 15.16 129.03 15.12 128.97 15.08C127.73 15.08 126.31 15.1 125.35 15.1C123.99 15.1 121.85 15.06 119.59 15.02C119.33 15.12 119.31 15.34 119.53 15.48C120.19 15.44 120.51 15.44 121.09 15.5C121.13 15.5 121.19 15.52 121.19 15.58C121.15 17.78 121.13 20.12 121.11 21.58C121.09 23.02 121.07 25.38 121.05 27.54C121.05 27.6 121.05 27.66 120.99 27.66C120.15 27.7 119.85 27.68 119.27 27.62ZM130.694 27.62C130.574 27.8 130.574 27.9 130.694 28.08C131.054 28.06 131.794 28 132.774 28C133.574 28 134.294 28.04 134.634 28.08C134.814 28 134.874 27.74 134.674 27.62C133.434 27.68 133.154 27.66 133.054 27.5C132.914 27.36 132.914 26.8 132.934 25.52C132.974 22.08 133.094 18.44 133.114 16.9C133.114 16.82 133.154 16.8 133.194 16.84C135.574 20.56 138.074 24.32 140.654 28.08C140.734 28.14 140.814 28.18 140.914 28.18C141.034 28.18 141.154 28.1 141.194 28C141.214 26.48 141.234 24.94 141.294 23.16C141.354 20.76 141.434 18.22 141.514 16.32C141.534 15.76 141.574 15.62 141.654 15.52C141.734 15.44 142.134 15.4 143.094 15.48C143.194 15.34 143.194 15.12 143.094 15.02C142.814 15.04 142.114 15.1 141.254 15.1C140.454 15.1 139.774 15.04 139.454 15.02C139.234 15.12 139.234 15.34 139.434 15.48C140.534 15.46 140.834 15.48 140.914 15.54C140.974 15.6 141.014 15.9 140.974 17.58C140.954 18.62 140.914 21 140.834 24.74C140.834 24.92 140.774 24.98 140.694 24.86C138.634 21.62 136.514 18.42 134.334 15.2C134.274 15.1 134.234 15.06 134.114 15.04C133.894 15.06 133.374 15.1 132.634 15.1C131.914 15.1 131.114 15.06 130.734 15.02C130.574 15.14 130.614 15.36 130.734 15.48C130.954 15.44 131.094 15.42 131.294 15.42C131.734 15.42 132.054 15.62 132.314 15.98C132.574 16.34 132.594 16.56 132.614 17.04C132.634 17.54 132.614 18.54 132.594 20.14C132.534 22.52 132.474 26.16 132.374 27.02C132.354 27.32 132.314 27.4 132.194 27.5C132.094 27.6 131.654 27.64 130.694 27.62ZM143.643 27.62C143.563 27.74 143.563 27.94 143.623 28.08C144.763 28.08 146.043 28 147.683 28C150.703 28 151.983 27.74 153.043 27.12C154.983 26 156.123 23.82 156.123 21.32C156.123 18.72 154.903 16.54 152.923 15.64C152.043 15.24 150.883 15.02 149.723 15.02C149.003 15.02 147.903 15.1 146.723 15.1C145.923 15.1 144.503 15.06 143.863 15.02C143.743 15.16 143.723 15.34 143.843 15.48C145.003 15.46 145.523 15.54 145.623 15.72C145.723 15.9 145.703 16.18 145.703 17.18C145.703 19.38 145.643 23 145.583 24.62C145.503 27.12 145.563 27.32 145.403 27.48C145.243 27.64 144.743 27.7 143.643 27.62ZM147.703 27.54C147.623 27.52 147.603 27.5 147.603 27.44C147.603 24.92 147.603 22.18 147.623 21.86C147.623 20.02 147.643 18.22 147.663 15.58C147.663 15.5 147.703 15.46 147.783 15.46C148.483 15.46 149.183 15.48 149.603 15.5C151.303 15.6 152.423 16.24 153.203 17.64C153.723 18.62 154.003 19.7 154.003 21.08C154.003 23.04 153.483 25.04 152.583 26.14C151.843 27.08 150.623 27.6 149.023 27.6C148.683 27.6 147.943 27.58 147.703 27.54Z"
        fill="black"></path>
    <path
        d="M95.904 41.921C95.981 41.877 95.981 41.745 95.915 41.668C95.387 41.69 94.826 41.723 94.386 41.734C94.045 41.745 93.33 41.756 92.615 41.767C92.549 41.833 92.56 41.943 92.637 41.998C92.692 41.987 93 41.976 93.165 41.976C93.66 41.976 93.836 42.119 93.836 42.526C93.836 43.054 93.561 43.56 93.121 43.802C92.901 43.923 92.56 44 92.263 44C91.504 44 90.756 43.494 90.448 42.735C90.25 42.262 90.129 41.382 90.129 40.612C90.129 38.489 91.064 36.905 92.516 36.905C93.737 36.905 94.54 38.005 94.54 39.259C94.606 39.358 94.705 39.369 94.76 39.259C94.738 38.852 94.837 37.367 94.925 36.861C94.903 36.784 94.848 36.74 94.793 36.74C94.76 36.74 94.727 36.751 94.705 36.784C94.683 37.081 94.54 37.279 94.364 37.279C94.243 37.279 94.111 37.191 93.935 37.092C93.429 36.795 92.978 36.685 92.439 36.685C90.459 36.685 88.963 38.379 88.963 40.634C88.963 41.965 89.491 43.021 90.503 43.67C91.075 44.033 91.669 44.22 92.263 44.22C93.121 44.22 94.133 43.813 94.716 43.23C94.771 43.186 94.793 43.142 94.804 43.087C94.826 42.603 94.914 42.185 95.024 42.042C95.123 41.91 95.332 41.888 95.904 41.921ZM96.1894 44.044C96.5854 44.022 97.0914 44 97.0914 44C98.0264 44 98.8404 44.033 99.2584 44.044C99.3464 43.978 99.3464 43.835 99.2364 43.769C98.5544 43.791 98.3344 43.802 98.2904 43.736C98.2464 43.67 98.2244 43.516 98.2464 42.625C98.2574 42.163 98.2794 40.997 98.2794 40.392C98.2794 40.37 98.2794 40.359 98.3344 40.359C98.4334 40.37 98.5874 40.37 98.7854 40.403C99.5884 40.513 99.9074 41.074 100.05 41.877C100.138 42.317 100.116 42.713 100.248 43.131C100.446 43.725 100.853 44.044 101.436 44.044C101.953 44.044 102.404 43.791 102.635 43.274C102.624 43.186 102.547 43.153 102.448 43.208C102.36 43.483 102.162 43.692 101.92 43.692C101.634 43.692 101.436 43.439 101.304 43.01C101.205 42.702 101.139 42.24 101.095 41.998C100.875 40.942 100.27 40.37 99.3354 40.304C99.3134 40.293 99.3244 40.271 99.3354 40.26C99.8854 40.194 100.358 39.952 100.688 39.644C101.018 39.336 101.172 38.951 101.172 38.489C101.172 37.939 100.908 37.455 100.479 37.18C100.16 36.96 99.7314 36.861 99.1264 36.861C98.7194 36.861 98.0704 36.883 97.3224 36.883C96.9484 36.883 96.4974 36.872 96.3544 36.861C96.2224 36.883 96.1674 37.059 96.3214 37.114C96.4534 37.103 96.5634 37.103 96.6844 37.103C96.9484 37.103 97.1904 37.147 97.2564 37.202C97.3114 37.257 97.2894 37.598 97.2674 39.567C97.2344 41.844 97.1794 43.076 97.1794 43.351C97.1794 43.626 97.1464 43.703 97.0914 43.736C97.0364 43.78 96.8274 43.802 96.1894 43.769C96.1234 43.879 96.1124 44 96.1894 44.044ZM98.3564 37.081C98.4774 37.07 98.6424 37.048 98.8074 37.048C99.2364 37.048 99.5444 37.169 99.7644 37.378C100.028 37.631 100.182 38.027 100.182 38.522C100.182 39.534 99.5554 40.172 98.7304 40.172C98.6204 40.172 98.4334 40.161 98.3564 40.161C98.3124 40.161 98.3014 40.15 98.3014 40.095C98.3124 39.479 98.3234 38.896 98.3234 38.357C98.3234 37.818 98.3344 37.367 98.3124 37.136C98.3124 37.103 98.3124 37.092 98.3564 37.081ZM105.967 44.22C107.837 44.22 109.256 42.526 109.256 40.348C109.256 38.28 107.914 36.685 106.121 36.685C105.406 36.685 104.713 36.938 104.141 37.422C103.283 38.148 102.777 39.303 102.777 40.579C102.777 42.636 104.163 44.22 105.967 44.22ZM105.989 44C104.669 44 103.921 42.79 103.921 40.645C103.921 39.435 104.152 38.401 104.603 37.752C104.988 37.213 105.516 36.905 106.132 36.905C107.419 36.905 108.112 38.115 108.112 40.37C108.112 42.713 107.353 44 105.989 44ZM109.789 36.861C109.723 36.927 109.712 37.037 109.778 37.114C110.394 37.081 110.691 37.092 110.735 37.147C110.79 37.202 110.768 37.411 110.757 38.819C110.746 40.48 110.658 41.734 110.801 42.46C111.021 43.527 111.945 44.22 113.177 44.22C114.299 44.22 115.201 43.67 115.542 42.801C115.751 42.284 115.85 41.415 115.872 40.018C115.883 39.369 115.894 38.225 115.905 37.664C115.916 37.279 115.927 37.213 115.993 37.158C116.059 37.103 116.246 37.081 116.741 37.114C116.829 37.059 116.862 36.927 116.796 36.861C116.587 36.883 116.092 36.905 115.762 36.905C115.41 36.905 114.959 36.883 114.695 36.861C114.596 36.905 114.618 37.048 114.717 37.114C115.399 37.081 115.509 37.125 115.564 37.202C115.63 37.279 115.63 37.356 115.63 38.522C115.63 41.327 115.531 42.064 115.344 42.603C115.058 43.417 114.409 43.835 113.65 43.835C113.034 43.835 112.429 43.538 112.132 43.087C111.868 42.691 111.791 42.064 111.791 40.315C111.791 39.369 111.824 38.071 111.846 37.609C111.857 37.345 111.857 37.213 111.901 37.169C111.945 37.125 112.088 37.103 112.759 37.114C112.836 37.037 112.847 36.916 112.77 36.861C112.242 36.883 111.692 36.905 111.307 36.905C110.768 36.905 110.229 36.883 109.789 36.861ZM117.158 43.791C117.081 43.857 117.081 43.967 117.158 44.044C117.785 44.022 118.434 44 118.918 44C119.391 44 119.952 44.022 120.293 44.044C120.381 43.978 120.37 43.846 120.271 43.791C119.633 43.813 119.391 43.791 119.314 43.714C119.248 43.637 119.204 43.428 119.215 42.68C119.215 42.35 119.226 41.327 119.226 40.887C119.226 40.832 119.259 40.821 119.303 40.832C119.446 40.865 119.633 40.898 119.897 40.898C120.821 40.898 121.492 40.667 121.932 40.183C122.273 39.82 122.493 39.27 122.493 38.742C122.493 38.137 122.207 37.587 121.723 37.257C121.338 36.993 120.755 36.839 120.26 36.839C119.875 36.839 119.193 36.905 118.456 36.905C118.049 36.905 117.466 36.872 117.235 36.861C117.158 36.916 117.136 37.026 117.202 37.114C117.312 37.103 117.521 37.081 117.697 37.081C117.928 37.081 118.148 37.103 118.192 37.169C118.236 37.224 118.258 37.631 118.236 39.391C118.203 41.767 118.203 43.043 118.192 43.329C118.181 43.538 118.159 43.659 118.071 43.747C117.994 43.835 117.675 43.857 117.158 43.791ZM119.259 40.557C119.281 39.413 119.281 38.302 119.281 37.169C119.281 37.125 119.292 37.114 119.347 37.103C119.501 37.081 119.732 37.059 119.908 37.059C120.238 37.059 120.601 37.169 120.887 37.433C121.184 37.719 121.426 38.181 121.426 38.797C121.426 39.864 120.755 40.656 119.798 40.656C119.688 40.656 119.446 40.645 119.347 40.623C119.292 40.612 119.259 40.59 119.259 40.557Z"
        fill="black"></path>
    <path d="M10.4631 5.38696H20.9266V48.0754L10.4631 58.7475V5.38696Z" fill="#1C918B"></path>
    <path
        d="M0 14.8224H1.74391C3.13904 6.28468 9.30085 3.755 12.2074 3.55737C15.1139 3.35974 24.4147 3.55737 24.4147 3.55737V48.6173L33.7156 59V0H0V14.8224Z"
        fill="#585C57"></path>
    <path
        d="M35.38 -2.4402e-05L35.3661 2.95939C42.4302 2.9978 45.7716 9.4282 46.5593 12.6386L48.1648 12.6473L48.2239 0.0698242L35.38 -2.4402e-05Z"
        fill="#1C918B"></path>
</svg>
