<svg xmlns="http://www.w3.org/2000/svg" fill="none" height="36" viewBox="0 0 170 62">
  <path fill="#0095D7"
    d="M86.86 37.34H97.2L89.96 22 77.1 49.82h-9.3l18.28-36.98h8.56l17.76 36.98h-9.3l-2.32-4.96H83.62l3.24-7.52Zm37.02-24.5v36.98h-8.82V12.84h8.82Zm15.92 10.92v6.52h15.78c2.66 0 4.06-2.42 4.06-4.86 0-2.38-1.34-4.72-4.06-4.72h-24.6v-7.86h24.68c8.68 0 13.24 6.58 13.24 13 0 4.86-2.62 9.72-8.1 11.54l9.2 12.44h-10.38l-8.06-11.68H139.8v11.68h-8.82V26.14l8.82-2.38ZM30.86 61.72c17.044 0 30.86-13.816 30.86-30.86C61.72 13.816 47.904 0 30.86 0 13.816 0 0 13.816 0 30.86c0 17.044 13.816 30.86 30.86 30.86Z" />
  <path fill="#39C0F6"
    d="M30.86 42.88c6.639 0 12.02-5.382 12.02-12.02 0-6.639-5.382-12.02-12.02-12.02-6.639 0-12.02 5.381-12.02 12.02 0 6.639 5.381 12.02 12.02 12.02Z" />
  <path fill="#fff"
    d="M30.86 24.84V1.5h1.48l7.24 21.08-8.72 2.26Zm-5.22 9.02L5.42 45.54l-.74-1.3 14.64-16.8 6.32 6.42Zm10.42 0 20.22 11.68-.74 1.3-21.88-4.28 2.4-8.7Z" />
  <path fill="#fff" d="M30.86 36.88a6.02 6.02 0 1 0 0-12.04 6.02 6.02 0 0 0 0 12.04Z" />
</svg>
