<svg width="142" height="32" viewBox="0 0 142 32" fill="none" xmlns="http://www.w3.org/2000/svg">
    <path
        d="M17.6097 23.654L19.9322 27.8249L17.7012 31.9699L13.0992 23.654L17.6097 23.654ZM22.1773 23.654L21.2507 25.3751L20.2825 23.654L22.1773 23.654Z"
        fill="#37517E" />
    <path
        d="M11.4161 0L23.4018 21.341L23.2798 21.5672L19.1087 21.5671L9.6508 4.75345L7.08796 4.75715L16.4478 21.5671L11.934 21.5672L0 0H11.4161Z"
        fill="#47B2E4" />
    <path d="M24.5264 19.2898L34.903 0.00793457H24.5671L18.8776 9.2323L24.5264 19.2898Z"
        fill="#47B2E4" />
    <path fillRule="evenodd" clipRule="evenodd"
        d="M17.9708 0C17.562 0 17.2349 0.0833168 16.9078 0.166634C17.3984 0.416584 17.7255 0.833168 17.7255 1.41639C17.7255 2.16624 17.1531 2.74945 16.4171 2.74945C15.8447 2.74945 15.4358 2.41619 15.1905 1.9996C15.027 2.41619 14.9452 2.83277 14.9452 3.33267C14.9452 5.16564 16.3354 6.66534 18.0526 6.66534C19.7699 6.66534 21.16 5.16564 21.16 3.33267C21.16 1.4997 19.7699 0 18.0526 0H17.9708ZM19.6881 3.33267C19.361 3.33267 19.1157 3.58262 19.1157 3.91589C19.1157 4.24916 19.361 4.49911 19.6881 4.49911C20.0152 4.49911 20.2605 4.24916 20.2605 3.91589C20.2605 3.58262 20.0152 3.33267 19.6881 3.33267Z"
        fill="#FFAF3A" />
    <path
        d="M44.8975 2.68988L49.0053 13.7673L53.1709 2.68988H55.6241L48.9572 19.8754L42.4443 2.68988H44.8975ZM65.249 11.7692L60.4004 2.68988H62.9786L66.3745 9.07751L69.7801 2.68988H72.3583L67.4905 11.7692V18.6745H65.249V11.7692ZM81.4156 16.4072H88.5443V18.6745H77.7311L85.0232 4.95713H78.924V2.68988H88.7078L81.4156 16.4072ZM98.1788 2.68988V18.6745H95.9373V2.68988H98.1788ZM105.783 10.6097C105.783 8.35971 106.55 6.42722 108.083 4.81219C109.609 3.19716 111.443 2.38965 113.585 2.38965C115.702 2.38965 117.517 3.20406 119.031 4.8329C120.551 6.46173 121.311 8.41838 121.311 10.7029C121.311 13.0012 120.547 14.951 119.021 16.5522C117.488 18.1603 115.638 18.9644 113.47 18.9644C111.552 18.9644 109.83 18.25 108.304 16.8214C106.624 15.2408 105.783 13.1703 105.783 10.6097ZM108.044 10.6408C108.044 12.4077 108.596 13.8605 109.699 14.9993C110.796 16.1381 112.062 16.7075 113.499 16.7075C115.057 16.7075 116.372 16.1277 117.443 14.9682C118.514 13.7949 119.05 12.3662 119.05 10.6822C119.05 8.97743 118.521 7.54877 117.462 6.39616C116.411 5.23665 115.109 4.6569 113.557 4.6569C112.011 4.6569 110.706 5.23665 109.641 6.39616C108.576 7.54187 108.044 8.95673 108.044 10.6408ZM128.906 18.6745V1.60284L139.738 13.7984V2.68988H141.979V19.6477L131.147 7.48319V18.6745H128.906Z"
        fill="#37517E" />
    <path
        d="M48.9057 31.5824V26.0237H48.1235V31.5824H48.9057ZM59.2034 31.9208V26.0237H58.4212V29.8867L54.6414 25.6457V31.5824H55.4236V27.6906L59.2034 31.9208ZM69.4977 31.9208V26.0237H68.7155V29.8867L64.9357 25.6457V31.5824H65.7179V27.6906L69.4977 31.9208ZM77.7007 31.6832C78.4571 31.6832 79.1027 31.4036 79.6376 30.8443C80.1702 30.2875 80.4365 29.6095 80.4365 28.8102C80.4365 28.0158 80.1713 27.3354 79.6409 26.7689C79.1128 26.2025 78.4795 25.9193 77.741 25.9193C76.9935 25.9193 76.3535 26.2001 75.8209 26.7617C75.286 27.3234 75.0186 27.9954 75.0186 28.7778C75.0186 29.6683 75.3117 30.3883 75.8981 30.9379C76.4307 31.4348 77.0316 31.6832 77.7007 31.6832ZM77.7108 30.8983C77.2095 30.8983 76.7675 30.7003 76.3848 30.3043C75.9999 29.9083 75.8074 29.4031 75.8074 28.7886C75.8074 28.203 75.9932 27.711 76.3647 27.3126C76.7362 26.9093 77.1916 26.7077 77.7309 26.7077C78.2725 26.7077 78.7268 26.9093 79.0938 27.3126C79.463 27.7134 79.6477 28.2102 79.6477 28.803C79.6477 29.3887 79.4608 29.8855 79.0871 30.2935C78.7133 30.6967 78.2546 30.8983 77.7108 30.8983ZM87.3606 32L89.6869 26.0237H88.8309L87.3774 29.8759L85.944 26.0237H85.088L87.3606 32ZM94.6371 31.5824L95.2145 30.2323H97.4334L97.9772 31.5824H98.8332L96.3592 25.6745L93.7945 31.5824H94.6371ZM97.1145 29.4439H95.5401L96.3457 27.5538L97.1145 29.4439ZM105.113 31.5824V26.8121H106.301V26.0237H103.139V26.8121H104.331V31.5824H105.113ZM112.272 31.5824V26.0237H111.49V31.5824H112.272ZM120.431 31.6832C121.188 31.6832 121.833 31.4036 122.368 30.8443C122.901 30.2875 123.167 29.6095 123.167 28.8102C123.167 28.0158 122.902 27.3354 122.371 26.7689C121.843 26.2025 121.21 25.9193 120.471 25.9193C119.724 25.9193 119.084 26.2001 118.551 26.7617C118.016 27.3234 117.749 27.9954 117.749 28.7778C117.749 29.6683 118.042 30.3883 118.628 30.9379C119.161 31.4348 119.762 31.6832 120.431 31.6832ZM120.441 30.8983C119.94 30.8983 119.498 30.7003 119.115 30.3043C118.73 29.9083 118.538 29.4031 118.538 28.7886C118.538 28.203 118.724 27.711 119.095 27.3126C119.467 26.9093 119.922 26.7077 120.461 26.7077C121.003 26.7077 121.457 26.9093 121.824 27.3126C122.193 27.7134 122.378 28.2102 122.378 28.803C122.378 29.3887 122.191 29.8855 121.817 30.2935C121.444 30.6967 120.985 30.8983 120.441 30.8983ZM133.203 31.9208V26.0237H132.421V29.8867L128.641 25.6457V31.5824H129.423V27.6906L133.203 31.9208ZM140.332 31.6832C140.806 31.6832 141.203 31.5152 141.523 31.1791C141.841 30.8455 142 30.4231 142 29.9119C142 29.5303 141.903 29.2081 141.708 28.9452C141.513 28.6824 141.206 28.4598 140.785 28.2774L140.268 28.0506C139.892 27.885 139.704 27.6666 139.704 27.3954C139.704 27.1986 139.775 27.0354 139.919 26.9057C140.062 26.7737 140.242 26.7077 140.459 26.7077C140.636 26.7077 140.78 26.7461 140.892 26.8229C141 26.8901 141.113 27.0342 141.231 27.255L141.866 26.8517C141.53 26.2277 141.063 25.9157 140.466 25.9157C140.023 25.9157 139.652 26.0573 139.355 26.3405C139.057 26.6213 138.908 26.9706 138.908 27.3882C138.908 28.0074 139.263 28.4778 139.972 28.7994L140.473 29.0226C140.602 29.0826 140.714 29.1457 140.808 29.2117C140.902 29.2777 140.979 29.3485 141.038 29.4241C141.098 29.4997 141.141 29.5825 141.169 29.6725C141.197 29.7625 141.211 29.8615 141.211 29.9695C141.211 30.2383 141.131 30.4603 140.969 30.6355C140.808 30.8107 140.606 30.8983 140.362 30.8983C140.053 30.8983 139.818 30.7783 139.657 30.5383C139.567 30.4135 139.505 30.1879 139.469 29.8615L138.677 30.0487C138.748 30.5671 138.928 30.9691 139.217 31.2548C139.51 31.5404 139.882 31.6832 140.332 31.6832Z"
        fill="#37517E" />
</svg>
